<svg id="Layer_1" data-name="Layer 1" xmlns="http://www.w3.org/2000/svg" width="2409.1799" height="2409.1799" viewBox="0 0 2409.1799 2409.1799">
  <defs>
    <style>
      .cls-1 {
        fill: #fff;
      }
    </style>
  </defs>
  <g>
    <path class="cls-1" d="M1204.5868,2054.8136h-.0009a104.736,104.736,0,0,1-94.191-58.2149L955.4271,1686.6574H858.1908c-281.4859.2074-509.8435-227.8141-510.0509-509.3q0-.3755,0-.7508V864.4173c-.207-281.4866,227.8151-509.8443,509.3016-510.0514q.3749,0,.75,0h692.7969c281.4873-.2065,509.8452,227.8167,510.0518,509.304q0,.3736,0,.7474v312.19c.207,281.4858-227.8145,509.843-509.3,510.05h-97.9878l-154.9756,309.9435A104.7375,104.7375,0,0,1,1204.5868,2054.8136ZM858.1913,474.3659c-215.419,0-390.051,174.631-390.0514,390.05v312.1907c0,215.4191,174.6316,390.0508,390.0506,390.0508h171.4011l174.9946,349.9961,175.0015-349.9961h171.4014c215.4188,0,390.05-174.6311,390.0506-390.05v-312.19c0-215.4193-174.6317-390.0512-390.0511-390.0513h-.0006Z"/>
    <path class="cls-1" d="M1582.0849,1014.5841v5.33a60.8115,60.8115,0,0,1-60.74,60.74h-253.94v255.12a60.74,60.74,0,1,1-121.48.0772V1080.6541h-258.09a60.8116,60.8116,0,0,1-60.74-60.74v-5.33a60.8052,60.8052,0,0,1,60.74-60.74h258.09v-250.98a60.74,60.74,0,1,1,121.48-.077v251.057h253.94A60.8051,60.8051,0,0,1,1582.0849,1014.5841Z"/>
  </g>
</svg>
