<svg id="Layer_1" data-name="Layer 1" xmlns="http://www.w3.org/2000/svg" width="2409.1799" height="2409.1799" viewBox="0 0 2409.1799 2409.1799">
  <path d="M812.7535,1938.9376H756.1881a94.1148,94.1148,0,0,1-94.0068-94.0107V1634.1827A322.53,322.53,0,0,1,408.14,1319.296V793.26A322.7974,322.7974,0,0,1,731.1578,470.2423h946.8643A322.7976,322.7976,0,0,1,2001.04,793.26V1319.296a322.7975,322.7975,0,0,1-323.0176,323.0176H1171.7408L919.22,1894.837A149.5812,149.5812,0,0,1,812.7535,1938.9376Zm-30.5722-120h30.5722a30.3645,30.3645,0,0,0,21.6133-8.9531l287.668-287.6709h555.9873c111.9443,0,203.0176-91.0732,203.0176-203.0176V793.26c0-111.9444-91.0733-203.0181-203.0176-203.0181H731.1578C619.2135,590.2423,528.14,681.316,528.14,793.26V1319.296a202.5417,202.5417,0,0,0,196.0986,202.1475l57.9424,1.9883Z"/>
</svg>
