<svg id="Layer_1" data-name="Layer 1" xmlns="http://www.w3.org/2000/svg" width="2409.1799" height="2409.1799" viewBox="0 0 2409.1799 2409.1799">
  <g>
    <path fill="#FFFFFF" d="M1204.5869,2054.8138h-.001a104.7356,104.7356,0,0,1-94.1909-58.2148L955.4272,1686.6576H858.1909A509.6756,509.6756,0,0,1,348.14,1176.6068V864.4174A509.6766,509.6766,0,0,1,858.1914,354.3661h692.7969A509.678,509.678,0,0,1,2061.04,864.4174v312.19a509.6753,509.6753,0,0,1-510.0507,510.05H1453.752L1298.7764,1996.601A104.7371,104.7371,0,0,1,1204.5869,2054.8138ZM858.1914,474.3661A390.0507,390.0507,0,0,0,468.14,864.4174v312.1894a390.0507,390.0507,0,0,0,390.0508,390.0508h171.4009l174.9946,349.9961,175.0015-349.9961h171.4014a390.0505,390.0505,0,0,0,390.0507-390.05v-312.19a390.0512,390.0512,0,0,0-390.0517-390.0513Z"/>
    <path fill="#FFFFFF"  d="M1582.085,1014.5842v5.33a60.8116,60.8116,0,0,1-60.74,60.74h-253.94v255.12a60.74,60.74,0,1,1-121.48,0v-255.12H887.835a60.8116,60.8116,0,0,1-60.74-60.74v-5.33a60.8051,60.8051,0,0,1,60.74-60.74h258.09v-250.98a60.74,60.74,0,1,1,121.48,0v250.98h253.94A60.8051,60.8051,0,0,1,1582.085,1014.5842Z"/>
  </g>
</svg>
