<svg id="Layer_1" data-name="Layer 1" xmlns="http://www.w3.org/2000/svg" width="2409.1799" height="2409.1799" viewBox="0 0 2409.1799 2409.1799">
  <g>
    <path d="M1865.4,705.25l-161.498-161.4963c-56.7224-56.7259-149.0264-56.7259-205.7524,0L1364.8582,677.0462l367.25,367.2481L1865.4,911.0023a145.4852,145.4852,0,0,0,.0051-205.7471Z"/>
    <path d="M885.25,1173.4592l-43.5461,329.3382a57.5774,57.5774,0,0,0,64.6547,64.6528l329.3382-43.5478a57.5935,57.5935,0,0,0,33.1778-16.3726L1650.65,1125.7529l-367.25-367.2486L901.6239,1140.2814A57.5956,57.5956,0,0,0,885.25,1173.4592Z"/>
    <path d="M1778.6693,1355.86a57.6,57.6,0,0,0-57.6006,57.5988v261.1333a118.3138,118.3138,0,0,1-118.1773,118.1809H734.5441a118.3138,118.3138,0,0,1-118.1773-118.1809v-868.31A118.3132,118.3132,0,0,1,734.5441,688.1048H995.6808a57.5988,57.5988,0,0,0,.151-115.1975H734.5441c-128.6851,0-233.3785,104.6915-233.3785,233.3748v868.31c0,128.6869,104.6934,233.3785,233.3785,233.3785h868.3473c128.6851,0,233.3785-104.6916,233.3785-233.3785V1413.4588A57.6,57.6,0,0,0,1778.6693,1355.86Z"/>
  </g>
</svg>
