<svg id="Layer_1" data-name="Layer 1" xmlns="http://www.w3.org/2000/svg" width="2409.1792" height="2409.1792" viewBox="0 0 2409.1792 2409.1792">
  <g>
    <path fill="#00a0df" d="M2111.1848,1245.72c-12.03-86.4-31.29-167.83-57.25-242.02-29.49-84.31-67.01-157.06-111.5-216.22-43.44-57.77-93.73-102.68-149.46-133.51-61.47-34-130.26-51.24-204.47-51.24a486.172,486.172,0,0,0-164.43,28c-45.82,16.17-83.61,36.63-116.96,54.69-40.97,22.19-73.33,39.71-102.57,39.71-29.15,0-61.51-17.52-102.49-39.71-33.34-18.06-71.13-38.52-116.95-54.69a486.174,486.174,0,0,0-164.43-28c-74.21,0-143,17.24-204.47,51.24-55.73,30.83-106.02,75.74-149.46,133.51-44.49,59.16-82.01,131.91-111.5,216.22-25.96,74.19-45.22,155.62-57.25,242.02-10.64,76.42-15.16,154.87-13.07,226.88,1.98,68.49,9.74,127.92,22.44,171.87,11.78,40.78,31.49,75.06,58.59,101.88a204.2859,204.2859,0,0,0,89.92,51.93,225.7233,225.7233,0,0,0,60.65,8.17c59.11,0,118.7-22.19,162.56-62.6l188.81-168.12.26-.24c44.54-41.1,80.58-66.58,122.51-66.58h427.84c41.94,0,77.97,25.48,122.51,66.58l189.07,168.36c43.87,40.41,103.46,62.6,162.57,62.6a225.7233,225.7233,0,0,0,60.65-8.17,204.1944,204.1944,0,0,0,89.91-51.93c27.11-26.82,46.82-61.1,58.6-101.88,12.69-43.95,20.45-103.38,22.44-171.87C2126.3445,1400.59,2121.8245,1322.14,2111.1848,1245.72Zm-131.97,363.34c-16.67,57.72-56.41,69.83-86.82,69.83-27.89,0-56.26-10.82-75.9-28.94l-1.28-1.16-188.38-167.75c-23.27-21.42-54.6-48.53-90.94-68.44-38.44-21.06-76.84-31.29-117.39-31.29h-427.84c-40.54,0-78.94,10.23-117.39,31.29-36.34,19.91-67.68,47.02-90.94,68.45l-188.82,168.14-.84.76c-19.63,18.12-48.01,28.94-75.89,28.94-30.41,0-70.15-12.11-86.82-69.83-18.05-62.46-26.77-193.58-5.58-345.73,22.83-163.98,74.1-305.74,144.35-399.16,34.41-45.75,71.55-78.8,113.55-101.03,41.7-22.07,86.96-32.8,138.39-32.8,45.17,0,96.36,0,220.62,67.29,52.33,28.34,101.77,55.11,163.25,55.11,61.57,0,111.01-26.77,163.34-55.11,58.24-31.54,124.26-67.29,220.62-67.29,51.43,0,96.69,10.73,138.39,32.8,41.99,22.23,79.14,55.28,113.55,101.04,70.25,93.41,121.51,235.16,144.35,399.14a1274.41,1274.41,0,0,1,12.4,174.35C1997.1946,1512.04,1989.8147,1572.38,1979.2146,1609.06Z"/>
    <g>
      <path fill="#00a0df" d="M1045.1946,1011.98v85.42a50.0033,50.0033,0,0,1-49.95,49.95h-75.05v75.05a50.01,50.01,0,0,1-49.95,49.95h-85.42a50.01,50.01,0,0,1-49.95-49.95v-75.05h-75.06a50.01,50.01,0,0,1-49.95-49.95v-85.42a50.01,50.01,0,0,1,49.95-49.95h75.06V886.97a50.01,50.01,0,0,1,49.95-49.95h85.42a50.01,50.01,0,0,1,49.95,49.95v75.06h75.05A50.0035,50.0035,0,0,1,1045.1946,1011.98Z"/>
      <circle fill="#00a0df" cx="1505.2346" cy="1203.9796" r="117.66"/>
      <circle fill="#00a0df" cx="1505.2346" cy="929.6796" r="117.6599" transform="translate(-216.5097 1336.6585) rotate(-45)"/>
      <circle fill="#00a0df" cx="1765.3246" cy="1066.8296" r="117.6601" transform="translate(-237.3108 1560.7402) rotate(-45)"/>
    </g>
  </g>
</svg>
