<svg id="Layer_1" data-name="Layer 1" xmlns="http://www.w3.org/2000/svg" width="2409.1799" height="2409.1799" viewBox="0 0 2409.1799 2409.1799">
  <path d="M1204.8425,1966.7306l-24.83-11.2861c-6.7461-3.0664-13.0449-6.209-19.7881-9.8731-255.0568-134.459-464.0957-300.498-604.4956-480.1631-147.5544-188.82-212.6018-384.4331-188.11-565.6914l.09-.6508c10.6382-76.82,32.1467-137.8414,48.3167-175.5044,20.5969-47.9737,46.2714-90.8506,76.3108-127.44,37.6992-45.92,82.4853-82.2114,133.114-107.8662C715.38,442.5661,822.0688,430.7667,933.9263,454.16c93.5778,19.57,186.3806,62.9663,270.9152,126.38,84.5347-63.4146,177.337-106.81,270.9146-126.38,111.8579-23.3931,218.5459-11.5938,308.5322,34.123,50.5117,25.6651,95.1939,61.9649,132.8081,107.8916,29.9639,36.586,55.5781,79.4576,76.1309,127.4234,16.1352,37.6548,37.6006,98.6626,48.2368,175.4668l.09.6518c24.4961,181.2867-40.4575,376.8921-187.8374,565.669-140.3007,179.709-349.2578,345.7558-604.2592,480.1865-6.7422,3.6621-13.04,6.8047-19.7847,9.8711ZM486.52,915.9259C445.6667,1219.171,727.2517,1578.3532,1204.841,1833.4c477.3052-254.898,758.6871-614.0708,717.8135-917.4673l-.0561-.4068c-8.8076-63.5991-26.4351-113.7729-39.6714-144.6645-35.5669-83.0049-87.042-142.083-152.9942-175.5938-65.3745-33.2133-144.7744-41.3906-229.6113-23.6479-88.5869,18.5263-177.3193,63.9658-256.6055,131.4053l-38.8745,33.0659-38.8745-33.0659c-79.2861-67.4395-168.019-112.879-256.6054-131.4053-84.8377-17.7432-164.2373-9.5654-229.6138,23.6494C613.54,628.818,561.9287,687.9005,526.2927,770.903a568.0344,568.0344,0,0,0-39.7183,144.624Z"/>
</svg>
