<svg id="Layer_1" data-name="Layer 1" xmlns="http://www.w3.org/2000/svg" width="2409.1792" height="2409.1792" viewBox="0 0 2409.1792 2409.1792">
  <g id="path5152">
    <path fill="#00a0df" d="M1960.158,2002.7085a116.37,116.37,0,0,1-50.2334-11.3071c-17.0293-8.1524-34.8457-16.6563-53.2579-25.4444-105.9179-50.5556-225.9726-107.8589-334.3-163.8174-.2158-.1059-.415-.1962-.6074-.2861a99.6974,99.6974,0,0,1-13.1787-7.3364,174.2417,174.2417,0,0,1-172.917,151.2988H604.7468a174.3945,174.3945,0,0,1-174.6045-174.605V1268.1025a173.5076,173.5076,0,0,1,51.0791-123.5278q4.5469-4.5483,9.3682-8.7178A290.8122,290.8122,0,1,1,828.1882,671.0532q8.269,8.2683,15.7891,17.0757A385.29,385.29,0,1,1,1386.95,1101.0845a174.4855,174.4855,0,0,1,121.6621,143.9492,100.5086,100.5086,0,0,1,12.5683-7.01l.3887-.186c74.1211-40.0132,143.0976-72.3887,216.12-106.6636,54.0147-25.3525,109.8682-51.5688,171.1231-82.4687a113.6261,113.6261,0,0,1,48.1377-11.9478l.1406-.0044A116.958,116.958,0,0,1,2077.3425,1153.66v732.1552a116.883,116.883,0,0,1-117.1845,116.8931Zm-386.5528-309.0806c.9707.46,2.2227,1.0645,3.7061,1.83,106.7148,55.1275,225.8955,112.0137,331.0469,162.2036,16.875,8.0547,33.2509,15.8711,48.9843,23.399V1158.623c-60.582,30.4483-115.5019,56.2266-168.666,81.18-71.5342,33.5762-139.1025,65.2906-210.3535,103.7656-1.9941,1.0767-3.666,1.896-4.8555,2.4664-.1377.0976-.2959.2119-.4765.3432v346.8052C1573.2273,1693.3564,1573.4314,1693.5039,1573.6052,1693.6279ZM604.7468,1213.4941a54.3982,54.3982,0,0,0-54.6045,54.6084v503.1084a54.3954,54.3954,0,0,0,54.6045,54.605h730.917a54.2533,54.2533,0,0,0,54.4395-54.605V1268.1025a54.2557,54.2557,0,0,0-54.4395-54.6084ZM1574.42,1694.1958l.0049.0034Zm-.2266-348.665-.0049.0029ZM816.29,1093.4941h229.4717A387.6652,387.6652,0,0,1,900.7732,961.6152a289.3364,289.3364,0,0,1-72.5742,120.6031Q822.3776,1088.0417,816.29,1093.4941ZM622.6208,705.9189c-94.1708,0-170.7841,76.5762-170.7841,170.7012,0,94.1709,76.6133,170.7842,170.7841,170.7842,94.126,0,170.7022-76.6133,170.7022-170.7842C793.323,782.4951,716.7468,705.9189,622.6208,705.9189Zm601.4151-219.4482a265.3993,265.3993,0,1,0,187.6308,77.7339A263.4986,263.4986,0,0,0,1224.0359,486.4707Z"/>
  </g>
</svg>
