<svg id="Layer_1" data-name="Layer 1" xmlns="http://www.w3.org/2000/svg" width="2409.1792" height="2409.1792" viewBox="0 0 2409.1792 2409.1792">
  <g>
    <path fill="#00a0df" d="M2079.59,504.59H562.9231a58.3362,58.3362,0,0,0-58.333,58.333v233.333h-175a58.3368,58.3368,0,0,0-58.334,58.334v875c0,96.5,78.5,175,175,175H1904.59c128.6582,0,233.333-104.6758,233.333-233.334V562.9226A58.3362,58.3362,0,0,0,2079.59,504.59ZM387.9231,912.9226H504.59V1729.59a58.3335,58.3335,0,0,1-116.667,0Zm1633.333,758.333a116.8,116.8,0,0,1-116.666,116.667H611.0452a173.7218,173.7218,0,0,0,10.2109-58.333V621.2556h1400Z"/>
    <path fill="#00a0df" d="M850.9436,796.2556h350a58.334,58.334,0,0,1,58.334,58.334v233.332a58.334,58.334,0,0,1-58.334,58.334H850.9446a58.334,58.334,0,0,1-58.334-58.334V854.5886A58.333,58.333,0,0,1,850.9436,796.2556Z"/>
    <path fill="#00a0df" d="M1437.9231,912.9226H1817.09a58.3335,58.3335,0,0,0,0-116.667h-379.167a58.3335,58.3335,0,0,0,0,116.667Z"/>
    <path fill="#00a0df" d="M1437.9231,1146.2556H1817.09a58.333,58.333,0,1,0,0-116.666h-379.167a58.333,58.333,0,0,0,0,116.666Z"/>
    <path fill="#00a0df" d="M825.4231,1379.59H1817.09a58.3335,58.3335,0,0,0,0-116.667H825.4231a58.3335,58.3335,0,0,0,0,116.667Z"/>
    <path fill="#00a0df" d="M1817.09,1496.2556H825.4231a58.3335,58.3335,0,0,0,0,116.667H1817.09a58.3335,58.3335,0,0,0,0-116.667Z"/>
  </g>
</svg>
