<svg id="Layer_1" data-name="Layer 1" xmlns="http://www.w3.org/2000/svg" width="2409.1792" height="2409.1792" viewBox="0 0 2409.1792 2409.1792">
  <path fill="#00a0df" d="M1204.59,353.3546c-469.37,0-851.24,381.86-851.24,851.23,0,469.38,381.87,851.24,851.24,851.24,469.38,0,851.24-381.86,851.24-851.24C2055.83,735.2146,1673.97,353.3546,1204.59,353.3546Zm553.33,378.6a731.1763,731.1763,0,0,1,79.67,113.32,722.1081,722.1081,0,0,1,78.62,205.39c-20.22,26.6-49.11,45.58-84.21,55.18-32.85,8.99-69,9.28-105.86.99C1757.75,976.0546,1768.47,848.5746,1757.9194,731.9546Zm-553.33-255.4a723.0192,723.0192,0,0,1,402.52,121.71c21.38,67.8,32.08,143.76,31.83,225.94-.22,72.86-9.04,149.19-26.24,227.43-106.57-75.2-174.42-182.02-240.24-285.64-64.9-102.16-131.65-207.22-234.82-286.37C1159.8994,477.5846,1182.26,476.5546,1204.59,476.5546Zm-471.27,173.57a724.6679,724.6679,0,0,1,227.63-131.65c65.38,27.2,120.64,67.28,173.14,125.43,50.12,55.51,91.04,119.94,134.37,188.15,40.88,64.34,83.14,130.88,135.06,192.33,53.5,63.33,110.96,113.3,175.04,152.15-9.9,30.3-20.98,60.65-33.13,90.71-280-136.15-596.96-278.42-966.84-433.98A730.0206,730.0206,0,0,1,733.32,650.1246Zm-208.63,294.13c371.79,156.26,689.63,298.89,969.82,435.22-13.68,27.11-28.11,53.74-43.08,79.47-153.78-60.2-344.08-33.95-528.43-8.51-157.62,21.75-306.83,42.34-402.36,3.66a728.01,728.01,0,0,1,4.05-509.84Zm415.14,628.22c158.16-21.82,321.21-44.31,443.1-7.06-60.44,85.2-126.17,156.66-195.76,212.78-38.03,30.67-76.69,56.13-114.91,75.68-35.45,18.14-70.68,31.26-104.82,39.06a732.46,732.46,0,0,1-376.76-297.4C694.99,1606.2546,814.56,1589.7546,939.83,1572.4746Zm614.41,270.51a723.3369,723.3369,0,0,1-349.65,89.64q-10.905,0-21.85-.33c43.95-27.62,87.43-61.12,130.01-100.22,63.78-58.56,123.81-128.09,178.77-206.98C1564.64,1687.3546,1588.3594,1768.2546,1554.24,1842.9846Zm136.98-97.43a296.1361,296.1361,0,0,0-29.94-101.19c-22.99-46-58.38-88.38-103.17-123.8,16.29-28,32-57.05,46.89-86.66,82.63,41.21,162.17,82.07,237.14,121.84A737.78,737.78,0,0,1,1691.22,1745.5546Zm-35.08-423.82c13.12-31.98,25.12-64.22,35.86-96.36a365.6159,365.6159,0,0,0,87.11,10.74c55.71,0,108.54-13.76,153.48-39.44q.0453,3.9748.04,7.91a722.6272,722.6272,0,0,1-40.12,238.43C1817.54,1403.3346,1738.27,1362.6647,1656.14,1321.7346Z"/>
</svg>
