<svg id="Layer_1" data-name="Layer 1" xmlns="http://www.w3.org/2000/svg" width="2409.1792" height="2409.1792" viewBox="0 0 2409.1792 2409.1792">
  <defs>
    <style>
      .cls-1 {
        fill-rule: evenodd;
      }
    </style>
  </defs>
  <path fill="#00a0df" class="cls-1" d="M1908.4546,730.7643h-508.5a288.5369,288.5369,0,0,0-171.69-124.34l174.08-209.47a48.8447,48.8447,0,0,0,52.28-81.3c-20.57-17.7-51.65-15.3-68.71,4.63a47.9493,47.9493,0,0,0-7.64,51.81l-188.75,227.95a266.7585,266.7585,0,0,0-31.73-2.4c-38.25,0-74.12,7.66-107.6,20.58l-57.12-68.89c.1-.09.2-.17.3-.26l-146.69-176.89a49.695,49.695,0,0,0-7.65-51.33,48.4366,48.4366,0,0,0-68.7-5.26,49.1823,49.1823,0,0,0-4.79,68.87,48.2744,48.2744,0,0,0,56.6,12.44l101.32,122.15c-.09.08-.19.15-.28.23l95.28,114.87a285.0436,285.0436,0,0,0-103.45,96.61h-414.46c-54.04,0-98.03,44.15-98.03,98.19v945.62c0,54.19,43.99,98.83,98.03,98.83h106.97v103.62c0,79.54,144.11-38.73,221.1-103.62h751.93c76.35,64.89,220.94,183.16,220.94,103.62v-103.62h106.96c54.04,0,98.2-44.64,98.2-98.83v-945.62C2006.6545,774.9145,1962.4944,730.7643,1908.4546,730.7643Zm-309.25,874.84c0,73-59.3,132.45-132.15,132.45h-814.27c-72.84,0-132.14-59.45-132.14-131.81v-625.86c0-72.52,59.3-132.46,132.14-132.46h814.27c72.85,0,132.15,59.94,132.15,132.46Zm219.35,92.93c-38.9,0-69.98-31.72-69.98-70.63,0-38.89,31.08-70.62,69.98-70.62,38.73,0,70.46,31.73,70.46,70.62A70.7263,70.7263,0,0,1,1818.5547,1698.5344Zm0-318.5c-38.9,0-69.98-31.73-69.98-70.61,0-38.91,31.08-70.62,69.98-70.62a70.6151,70.6151,0,0,1,0,141.23Zm0-296.02c-38.9,0-69.98-31.25-69.98-70.78,0-38.74,31.08-70.63,69.98-70.63,38.73,0,70.46,31.89,70.46,70.63A70.4575,70.4575,0,0,1,1818.5547,1084.0143Z"/>
</svg>
