<svg id="Layer_1" data-name="Layer 1" xmlns="http://www.w3.org/2000/svg" width="2409.1799" height="2409.1799" viewBox="0 0 2409.1799 2409.1799">
  <g>
    <path d="M1686.2607,786.5816q-2-.178-4.01-.1782H726.9313a45.2,45.2,0,0,0-45.2,45.1994q0,2.0087.1783,4.0112l85.2838,943.5438.5233,5.8755a141.9333,141.9333,0,0,0,141.38,129.34h591a141.9145,141.9145,0,0,0,141.36-129.34l.5234-5.8755,85.2932-943.5435A45.2006,45.2006,0,0,0,1686.2607,786.5816Zm-654.8676,874.7078a57.7325,57.7325,0,0,1-57.7325,57.7325h0A57.7325,57.7325,0,0,1,915.928,1661.29V1052.1109a57.7326,57.7326,0,1,1,115.4651,0Zm230.93,0a57.7324,57.7324,0,0,1-57.7324,57.7325h0a57.7325,57.7325,0,0,1-57.7326-57.7324V1052.1109a57.7326,57.7326,0,1,1,115.4651,0Zm230.9306,0a57.7325,57.7325,0,0,1-115.4651,0V1052.1109a57.7326,57.7326,0,1,1,115.4651,0Z"/>
    <path d="M1758.795,610.0067h-376.56a115.1957,115.1957,0,0,0-115.19-115.2H1142.1407a115.198,115.198,0,0,0-115.1958,115.2h-376.56a57.6,57.6,0,0,0,0,115.2H1758.8033a57.5959,57.5959,0,0,0,57.5917-57.6v-.0047A57.5977,57.5977,0,0,0,1758.795,610.0067Z"/>
  </g>
</svg>
