<svg id="Layer_1" data-name="Layer 1" xmlns="http://www.w3.org/2000/svg" width="2216.9189" height="1238.1725" viewBox="0 0 2216.9189 1238.1725">
  <defs>
    <style>
      .cls-1 {
        fill: #0b8459;
      }

      .cls-2 {
        fill: #0095d0;
      }

      .cls-3 {
        fill: #bfd3d6;
      }

      .cls-4 {
        fill: #fffdfe;
      }

      .cls-5 {
        fill: #ff9b00;
      }
    </style>
  </defs>
  <rect class="cls-1" x="179.4594" y="668.9859" width="1858" height="424.1061"/>
  <path d="M2053.6858,1172.2744H163.2327c-32.957,0-58.7734-18.5537-58.7734-42.2393V626.68c0-23.6855,25.8164-42.2392,58.7734-42.2392H2053.6858c32.9571,0,58.7735,18.5537,58.7735,42.2392v503.355C2112.4593,1153.7207,2086.6429,1172.2744,2053.6858,1172.2744ZM163.2327,616.4409c-18.1631,0-26.7734,8.2129-26.7734,10.2392v503.355c0,2.0264,8.61,10.2393,26.7734,10.2393H2053.6858c18.1631,0,26.7735-8.2129,26.7735-10.2393V626.68c0-2.0263-8.61-10.2392-26.7735-10.2392Zm945.2266,493.2026c-434.4707,0-868.9414-.0376-920.5616-.1123a21.0251,21.0251,0,0,1-20.96-21V668.184a21.0257,21.0257,0,0,1,20.9609-21c103.24-.1494,1737.8818-.1494,1841.1221,0a21.0257,21.0257,0,0,1,20.9609,21v420.3472a21.0256,21.0256,0,0,1-20.9619,21C1977.4,1109.6059,1542.93,1109.6435,1108.4593,1109.6435Zm-909.5215-32.1011c170.957.1348,1648.0869.1348,1819.0439,0v-398.37c-170.957-.1348-1648.0869-.1348-1819.0439,0Z"/>
  <g>
    <polygon class="cls-2" points="862.364 108.042 921.304 141.885 1014.503 115.173 1114.042 101.074 1209.814 115.173 1261.36 124.403 1295.624 141.885 1360.899 110.033 1381.802 129.94 1376.825 181.701 1367.484 382.769 1331.554 502.216 1244.341 566.751 1227.517 606.428 1000.499 606.428 976.725 586.333 968.301 551.363 885.369 499.23 850.434 419.152 849.434 194.641 835.333 148.853 849.434 115.173 862.364 108.042"/>
    <path class="cls-3" d="M1234.2667,546.4482c27.13-31.8736,44.3469-74.0622,46.23-120.6375a48.0713,48.0713,0,0,1-9.6471,2.66c-15.8408,2.6385-31.8153.4382-47.3242-3.28a310.8146,310.8146,0,0,1-30.4389-9.2859c-15.267-5.3614-29.2423-11.123-41.4211-22.1017-11.006-9.9214-18.8154-23.0878-24.8982-36.4522-1.1467-2.52-2.2925-5.0608-3.3974-7.6167h-32.9041c-1.662,1.753-3.1349,3.3347-3.4164,3.64-11.0856,12.007-20.6978,25.4271-32.9788,36.2977-15.643,13.8465-33.6819,22.7942-53.6305,28.7621-20.3986,6.1026-42.9449,8.4492-63.5386,1.9115-.1645-.0522-.3169-.1207-.479-.1762.6666,48.775,18.1385,93.069,46.3278,126.2181a24.9072,24.9072,0,0,0-10.162,20.3633c0,13.4686,10.1123,24.3871,22.5863,24.3871,9.2059,0,17.12-5.95,20.6377-14.48.8127.5722,1.6327,1.1329,2.4547,1.69-.0127.3355-.0237.6715-.0237,1.01,0,13.4686,10.1122,24.387,22.5864,24.387a21.6051,21.6051,0,0,0,15.1575-6.3082,158.0846,158.0846,0,0,0,104.9908.0383,21.599,21.599,0,0,0,15.1166,6.27c12.4741,0,22.5864-10.9184,22.5864-24.387,0-.3035-.011-.604-.0212-.9047.8351-.5651,1.662-1.1432,2.4876-1.7235,3.5328,8.4907,11.4277,14.407,20.6072,14.407,12.4742,0,22.5864-10.9185,22.5864-24.3871A24.9191,24.9191,0,0,0,1234.2667,546.4482Z"/>
    <path class="cls-4" d="M1236.9544,160.102a129.55,129.55,0,0,0-128.495,113.0825,129.5212,129.5212,0,1,0,0,32.8927,129.5362,129.5362,0,1,0,128.495-145.9752Z"/>
    <g>
      <ellipse class="cls-5" cx="1040.8294" cy="583.1159" rx="19.4207" ry="23.3116"/>
      <ellipse class="cls-5" cx="995.1744" cy="568.6037" rx="18.601" ry="22.3277"/>
      <ellipse class="cls-5" cx="1176.0944" cy="583.1159" rx="17.485" ry="20.9881"/>
      <ellipse class="cls-5" cx="1221.7544" cy="568.6037" rx="18.601" ry="22.3277"/>
    </g>
    <polygon class="cls-5" points="1078.66 390 1108.459 420.525 1142.033 388.009 1110.346 339.899 1078.66 390"/>
    <g>
      <path d="M976.725,215.3181c-40.5,0-73.3316,33.9545-73.3316,75.8393s32.8317,75.8395,73.3316,75.8395,73.3317-33.9545,73.3317-75.8395S1017.225,215.3181,976.725,215.3181ZM949.83,324.5682a18.4712,18.4712,0,1,1,18.4712-18.4712A18.4712,18.4712,0,0,1,949.83,324.5682Zm50.6691-24.32a28.809,28.809,0,1,1,28.809-28.809A28.809,28.809,0,0,1,1000.4992,300.2484Z"/>
      <path d="M1166.8773,291.1574c0,41.885,32.8317,75.8395,73.3317,75.8395s73.3316-33.9545,73.3316-75.8395-32.8317-75.8393-73.3316-75.8393S1166.8773,249.2726,1166.8773,291.1574Zm68.2969-19.718a28.8089,28.8089,0,1,1,28.8089,28.809A28.8089,28.8089,0,0,1,1235.1742,271.4394Zm-40.3314,34.6576a18.4712,18.4712,0,1,1,18.4712,18.4712A18.4713,18.4713,0,0,1,1194.8428,306.097Z"/>
      <path d="M1398.0844,133.4231c-.19-.93-.39-1.85-.61-2.76-.11-.47-.22-.94-.34-1.4q-.36-1.35-.75-2.7v-.02c-.14-.48-.29-.96-.45-1.43-.08-.26-.16-.52-.26-.78l-.36-1.05a.2967.2967,0,0,0-.04-.11c-.12-.34-.24-.68-.37-1.02a69.91,69.91,0,0,0-2.92-6.84c-.24-.49-.49-.99-.74-1.48-.26-.49-.51-.97-.78-1.46-.26-.48-.53-.96-.8-1.44-1.1-1.9-2.28-3.76-3.53-5.56-1.25-1.81-2.59-3.56-4-5.24-.01-.01-.02-.03-.04-.04-.92-1.12-1.86-2.2-2.85-3.25a75,75,0,0,0-17.0988-13.5826,10.0156,10.0156,0,0,0-13.8329,3.8422,73.3389,73.3389,0,0,1-49.6883,36.75,1.1627,1.1627,0,0,1-.18.04,468.1971,468.1971,0,0,0-164.79-40.02c-1.14-.06-2.29-.12-3.43-.18-1.5-.07-3.01-.14-4.52-.2-1.39-.05-2.79-.09-4.19-.13q-6.06-.18-12.13-.19h-1c-1.31,0-2.61.01-3.92.02-1.03.01-2.05.02-3.08.04-.77.01-1.53.02-2.29.04-1.04.02-2.07.04-3.1.07-.49.01-.97.03-1.46.04-.8.03-1.6.06-2.39.08q-3.09.12-6.16.27c-1.03.05-2.06.1-3.09.16q-4.62.255-9.24.62c-.88.06-1.77.13-2.66.21-.3.01-.59.04-.89.07q-5.91.495-11.83,1.15c-3.01.33-6.03.69-9.04,1.08q-2.115.27-4.23.57a467.7319,467.7319,0,0,0-126.52,36.29l-.0129.0015a72.7932,72.7932,0,0,1-34.9871-17.7815,73.454,73.454,0,0,1-14.8712-18.9974A10.0153,10.0153,0,0,0,854.78,83.2619a75.1837,75.1837,0,0,0-17.106,13.5812l-2.89,3.29c-1.4,1.68-2.74,3.43-4,5.24a74.3407,74.3407,0,0,0,0,85.01v178.85a215.0309,215.0309,0,0,0,134.27,199.12v5.27a42.81,42.81,0,0,0,42.81,42.81h201.2a42.8591,42.8591,0,0,0,42.81-42.81v-5.27a215.0465,215.0465,0,0,0,134.26-199.12v-178.87c.99-1.41,1.92-2.87,2.81-4.35.45-.74.88-1.49,1.3-2.25s.82-1.53,1.22-2.3c.19-.38.38-.77.58-1.15-.01-.01-.01-.01,0-.01.37-.79.74-1.57,1.09-2.37.22-.5.43-1,.64-1.5.18-.43.36-.86.53-1.3.43-1.09.84-2.19,1.22-3.3a74.7638,74.7638,0,0,0,2.56-38.41Zm-342.46-14.95c1.35-.17,2.69-.33,4.04-.48,1.39-.16,2.78-.32,4.17-.46,1.44-.15,2.87-.29,4.31-.43,1.48-.14,2.97-.28,4.45-.4.3-.04.61-.06.92-.08,1.81-.16,3.61-.29,5.42-.42q2.865-.21,5.74-.36c1.91-.11,3.82-.21,5.73-.28,1.52-.07,3.05-.12,4.57-.17.14,0,.29-.01.43-.01.82-.03,1.65-.06,2.47-.07,1.06-.04,2.11-.06,3.16-.07,1.21-.03,2.42-.04,3.64-.04q1.47-.03,2.94-.03h1.57c-.86,0-1.71.01-2.57.03.98-.02,1.97-.03,2.95-.02.77-.01,1.55,0,2.32.01.3,0,.59,0,.89.01.65,0,1.31.01,1.97.02q3.165.045,6.33.14c.47.01.95.03,1.42.05,1.15.03,2.31.07,3.47.12,1.85.08,3.7.17,5.56.27,1.62.08,3.24.18,4.86.29,1.62.1,3.24.22,4.85.35,1.62.12,3.23.25,4.85.4,1.62.13,3.23.29,4.85.46,1.61.15,3.23.32,4.84.51,1.43.16,2.86.33,4.28.5q5.925.72,11.83,1.6c1.22.18,2.43.37,3.65.56.03.01.07.01.11.02a436.005,436.005,0,0,1,101.15,28.87,137.1537,137.1537,0,0,0-95.57,5.83,141.0986,141.0986,0,0,0-45.07,31.87,147.6582,147.6582,0,0,0-27.69,41.06,147.8408,147.8408,0,0,0-27.68-41.06,141.2084,141.2084,0,0,0-45.07-31.87,137.0551,137.0551,0,0,0-96.57-5.51A435.0331,435.0331,0,0,1,1055.6244,118.4731Zm71.36,265.9-18.52,19.14-18.52-19.14a147.1373,147.1373,0,0,0,18.52-30.47A147.1373,147.1373,0,0,0,1126.9844,384.3731Zm-277.55-236.51a43.9413,43.9413,0,0,1,1.34-10.61,42.5422,42.5422,0,0,1,5.73-12.85,104.932,104.932,0,0,0,64.8,32.29,141.275,141.275,0,0,0-41.82,30.37q-1.575,1.65-3.08,3.34a55.4544,55.4544,0,0,1-18.49-17.32C855.4644,169.3531,849.4744,160.0031,849.4344,147.8631Zm130.7,19.55c58.52,0,107.05,44.8,116.21,103.48v.01a130.3348,130.3348,0,0,1,0,40.21v.01c-9.16,58.7-57.69,103.48-116.21,103.48-65.04,0-117.77-55.33-117.77-123.59S915.0944,167.4131,980.1344,167.4131Zm15.04,418.92c-6.48,0-11.94-8.01-11.94-17.49,0-9.47,5.46-17.48,11.94-17.48,6.47,0,11.94,8.01,11.94,17.48C1007.1144,578.3231,1001.6444,586.3331,995.1744,586.3331Zm45.66,12.09c-6.48,0-11.95-8-11.95-17.48s5.47-17.49,11.95-17.49c6.47,0,11.94,8.01,11.94,17.49S1047.3044,598.4231,1040.8344,598.4231Zm135.26,0c-6.47,0-11.94-8-11.94-17.48s5.47-17.49,11.94-17.49,11.94,8.01,11.94,17.49S1182.5644,598.4231,1176.0944,598.4231Zm57.6-29.58c0,9.48-5.47,17.49-11.94,17.49-6.48,0-11.94-8.01-11.94-17.49,0-9.47,5.46-17.48,11.94-17.48C1228.2244,551.3631,1233.6944,559.3731,1233.6944,568.8431Zm18.18-35.64q-7.725,3.795-15.84,6.87a24.4039,24.4039,0,0,0-14.28-4.71c-11.93,0-22.14,9.01-26.13,21.65-5.04-5.91-11.93-9.56-19.53-9.56-15.41,0-27.94,15.02-27.94,33.49,0,1.18.05,2.34.15,3.49h-79.68c.1-1.15.15-2.31.15-3.49,0-18.47-12.54-33.49-27.94-33.49-7.6,0-14.49,3.65-19.53,9.56-3.99-12.64-14.2-21.65-26.13-21.65a24.4039,24.4039,0,0,0-14.28,4.71q-8.115-3.06-15.84-6.88c-59.18-29.11-100.41-89.34-102.2-159.21a145.5283,145.5283,0,0,0,16.63,20.98,141.2084,141.2084,0,0,0,45.07,31.87,137.1142,137.1142,0,0,0,111.16,0,140.3471,140.3471,0,0,0,37.89-24.84l18.16,18.77-.11.12,3.53,3.42,13.01,13.44.27.28,13.28-13.72,3.53-3.42-.11-.12,18.16-18.77a140.3981,140.3981,0,0,0,37.9,24.84,137.0906,137.0906,0,0,0,111.15,0,141.0986,141.0986,0,0,0,45.07-31.87,145.9855,145.9855,0,0,0,16.62-20.96C1352.2744,443.8631,1311.0444,504.0831,1251.8744,533.2031Zm-15.07-118.6c-58.52,0-107.06-44.79-116.21-103.49a130.3348,130.3348,0,0,1,0-40.21c9.15-58.69,57.69-103.49,116.21-103.49,65.04,0,117.76,55.34,117.76,123.6S1301.8444,414.6031,1236.8044,414.6031Zm130.68-266.76v.02c-.04,12.13-6.03,21.47-8.48,25.2a55.37,55.37,0,0,1-18.5,17.32q-1.5-1.68-3.06-3.32a141.1469,141.1469,0,0,0-41.82-30.37,104.9062,104.9062,0,0,0,64.8-32.29c.72,1.1,1.4,2.22,2.02,3.38.06.12.13.24.19.36.18.34.36.69.53,1.05.13.26.26.53.39.8.18.4.36.8.54,1.21a40.5935,40.5935,0,0,1,1.53,4.21c.16.48.3.97.42,1.46a.09.09,0,0,1,.01.05c.04.1.06.21.09.31.09.33.25.99.43,1.88.08.37.16.78.24,1.22.06.35.12.72.18,1.12.12.83.24,1.75.33,2.73.02.25.04.5.06.76.03.48.06.97.07,1.48q.03.66.03,1.35Z"/>
    </g>
  </g>
  <g>
    <path d="M533.0921,970.7734V791.3769H591.59V922.6748h61.1v48.0986Z"/>
    <path d="M748.8909,973.8935c-55.8994,0-97.498-34.06-97.498-92.5586s41.5986-92.8174,97.498-92.8174,97.4971,34.3194,97.4971,92.8174S804.7893,973.8935,748.8909,973.8935Zm0-135.7178c-23.4,0-38.48,17.16-38.48,41.8594s15.0791,41.8594,38.48,41.8594,38.2187-17.16,38.2187-41.8594S772.29,838.1757,748.8909,838.1757Z"/>
    <path d="M969.8909,970.7734l-7.0195-25.22H911.6526l-6.76,25.22H843.7942l62.3985-179.3965h64.999L1033.59,970.7734Zm-32.499-118.2979-13.26,48.1h26.5195Z"/>
    <path d="M1111.59,970.7734h-67.5986V791.3769H1111.59c59.5381,0,101.3975,25.22,101.3975,89.6982S1171.1282,970.7734,1111.59,970.7734Zm4.42-131.2969H1102.49V921.374H1116.01c26.2588,0,37.6993-14.8194,37.6993-40.2989C1153.7093,855.0761,1143.3089,839.4765,1116.01,839.4765Z"/>
    <path d="M1231.1878,970.7734V791.3769h58.7588V970.7734Z"/>
    <path d="M1426.4417,970.7734,1371.843,870.6757s1.3,19.4991,1.3,32.4991v67.5986h-57.1983V791.3769h63.6983l51.999,100.0986s-1.3-19.5-1.3-32.5V791.3769H1487.54V970.7734Z"/>
    <path d="M1600.6409,973.6337c-48.0986,0-94.8975-28.8593-94.8975-92.5586s46.7989-92.2978,96.1973-92.2978,70.1992,25.999,75.3984,31.1992l-38.999,32.499a49.6542,49.6542,0,0,0-36.3994-15.6c-20.7988,0-37.1787,15.6-37.1787,44.1992s16.38,44.1993,37.1787,44.1993,24.7-6.5,24.7-6.5v-13h-27.3v-43.419h84.498V940.874C1669.5393,953.874,1648.7405,973.6337,1600.6409,973.6337Z"/>
  </g>
</svg>
