<svg id="Layer_1" data-name="Layer 1" xmlns="http://www.w3.org/2000/svg" width="673.4756" height="638.9019" viewBox="0 0 673.4756 638.9019">
  <defs>
    <style>
      .cls-1 {
        fill: #0095d0;
      }

      .cls-2 {
        fill: #bfd3d6;
      }

      .cls-3 {
        fill: #fffdfe;
      }

      .cls-4 {
        fill: #ff9b00;
      }
    </style>
  </defs>
  <g>
    <polygon class="cls-1" points="90.643 78.327 149.583 112.17 242.782 85.458 342.321 71.359 438.093 85.458 489.638 94.688 523.903 112.17 589.177 80.318 610.081 100.226 605.104 151.986 595.763 353.055 559.833 472.501 472.619 537.036 455.795 576.713 228.778 576.713 205.003 556.618 196.58 521.648 113.648 469.515 78.713 389.437 77.713 164.926 63.612 119.138 77.713 85.458 90.643 78.327"/>
    <path class="cls-2" d="M462.5451,516.7334c27.13-31.8736,44.3469-74.0622,46.23-120.6375a48.0647,48.0647,0,0,1-9.6471,2.66c-15.8408,2.6385-31.8153.4383-47.3242-3.28a310.7975,310.7975,0,0,1-30.439-9.2859c-15.2669-5.3614-29.2422-11.123-41.421-22.1016-11.006-9.9215-18.8154-23.0879-24.8982-36.4523-1.1468-2.52-2.2925-5.0607-3.3974-7.6167H318.744c-1.662,1.753-3.1349,3.3348-3.4164,3.64-11.0856,12.0071-20.6978,25.4271-32.9788,36.2977-15.643,13.8466-33.6819,22.7942-53.63,28.7622-20.3987,6.1026-42.9449,8.4491-63.5386,1.9115-.1645-.0522-.3169-.1208-.479-.1762.6666,48.775,18.1385,93.0689,46.3278,126.218a24.9074,24.9074,0,0,0-10.162,20.3633c0,13.4686,10.1123,24.3871,22.5863,24.3871,9.2059,0,17.12-5.95,20.6377-14.48.8127.5722,1.6326,1.1329,2.4547,1.69-.0127.3355-.0237.6715-.0237,1.01,0,13.4686,10.1122,24.3871,22.5864,24.3871a21.6052,21.6052,0,0,0,15.1575-6.3083,158.0829,158.0829,0,0,0,104.9908.0383,21.5991,21.5991,0,0,0,15.1166,6.27c12.4741,0,22.5864-10.9185,22.5864-24.3871,0-.3034-.011-.604-.0212-.9047.8351-.565,1.662-1.1432,2.4876-1.7234,3.5328,8.4906,11.4277,14.4069,20.6072,14.4069,12.4742,0,22.5864-10.9185,22.5864-24.3871A24.9192,24.9192,0,0,0,462.5451,516.7334Z"/>
    <path class="cls-3" d="M465.2328,130.3872A129.55,129.55,0,0,0,336.7378,243.47a129.5211,129.5211,0,1,0,0,32.8926,129.5362,129.5362,0,1,0,128.495-145.9752Z"/>
    <g>
      <ellipse class="cls-4" cx="269.1078" cy="553.4011" rx="19.4207" ry="23.3116"/>
      <ellipse class="cls-4" cx="223.4528" cy="538.8889" rx="18.601" ry="22.3277"/>
      <ellipse class="cls-4" cx="404.3728" cy="553.4011" rx="17.485" ry="20.9881"/>
      <ellipse class="cls-4" cx="450.0328" cy="538.8889" rx="18.601" ry="22.3277"/>
    </g>
    <polygon class="cls-4" points="306.938 360.285 336.738 390.81 370.311 358.294 338.625 310.184 306.938 360.285"/>
    <g>
      <path d="M205.0034,185.6033c-40.5,0-73.3317,33.9545-73.3317,75.8394s32.8318,75.8394,73.3317,75.8394,73.3317-33.9545,73.3317-75.8394S245.5034,185.6033,205.0034,185.6033Zm-26.8949,109.25A18.4712,18.4712,0,1,1,196.58,276.3823,18.4712,18.4712,0,0,1,178.1085,294.8534Zm50.6691-24.32a28.809,28.809,0,1,1,28.8089-28.8089A28.8089,28.8089,0,0,1,228.7776,270.5336Z"/>
      <path d="M395.1557,261.4427c0,41.8849,32.8317,75.8394,73.3317,75.8394s73.3316-33.9545,73.3316-75.8394-32.8317-75.8394-73.3316-75.8394S395.1557,219.5578,395.1557,261.4427Zm68.2969-19.718a28.8089,28.8089,0,1,1,28.8089,28.8089A28.809,28.809,0,0,1,463.4526,241.7247Zm-40.3314,34.6576a18.4712,18.4712,0,1,1,18.4712,18.4711A18.4712,18.4712,0,0,1,423.1212,276.3823Z"/>
      <path d="M626.3628,103.7084c-.19-.93-.39-1.85-.61-2.76-.11-.47-.22-.94-.34-1.4q-.36-1.35-.75-2.7v-.02c-.14-.48-.29-.96-.45-1.43-.08-.26-.16-.52-.26-.78l-.36-1.05a.2957.2957,0,0,0-.04-.11c-.12-.34-.24-.68-.37-1.02a69.8978,69.8978,0,0,0-2.92-6.84c-.24-.49-.49-.99-.74-1.48-.26-.49-.51-.97-.78-1.46-.26-.48-.53-.96-.8-1.44-1.1-1.9-2.28-3.76-3.53-5.56-1.25-1.81-2.59-3.56-4-5.24-.01-.01-.02-.03-.04-.04-.92-1.12-1.86-2.2-2.85-3.25A75.0057,75.0057,0,0,0,590.424,53.5457a10.0155,10.0155,0,0,0-13.8329,3.8423,73.3486,73.3486,0,0,1-14.8783,19,72.8179,72.8179,0,0,1-34.81,17.75,1.1623,1.1623,0,0,1-.18.04,468.1948,468.1948,0,0,0-164.79-40.02c-1.14-.06-2.29-.12-3.43-.18-1.5-.07-3.01-.14-4.52-.2-1.39-.05-2.79-.09-4.19-.13q-6.06-.18-12.13-.19h-1c-1.31,0-2.61.01-3.92.02-1.03.01-2.05.02-3.08.04-.77.01-1.53.02-2.29.04-1.04.02-2.07.04-3.1.07-.49.01-.97.03-1.46.04-.8.03-1.6.06-2.39.08q-3.09.12-6.16.27c-1.03.05-2.06.1-3.09.16q-4.62.2551-9.24.62c-.88.06-1.77.13-2.66.21-.3.01-.59.04-.89.07q-5.91.495-11.83,1.15c-3.01.33-6.03.69-9.04,1.08q-2.115.27-4.23.57a467.7391,467.7391,0,0,0-126.52,36.29l-.0129.0015a72.7939,72.7939,0,0,1-34.9871-17.7814A73.4544,73.4544,0,0,1,96.8916,57.3909a10.0153,10.0153,0,0,0-13.8328-3.8437,75.186,75.186,0,0,0-17.106,13.5811l-2.89,3.29c-1.4,1.68-2.74,3.43-4,5.24a74.3406,74.3406,0,0,0,0,85.01v178.85a215.0309,215.0309,0,0,0,134.27,199.12v5.27a42.81,42.81,0,0,0,42.81,42.81h201.2a42.8591,42.8591,0,0,0,42.81-42.81v-5.27a215.0465,215.0465,0,0,0,134.26-199.12v-178.87c.99-1.41,1.92-2.87,2.81-4.35.45-.74.88-1.49,1.3-2.25s.82-1.53,1.22-2.3c.19-.38.38-.77.58-1.15-.01-.01-.01-.01,0-.01.37-.79.74-1.57,1.09-2.37.22-.5.43-1,.64-1.5.18-.43.36-.86.53-1.3.43-1.09.84-2.19,1.22-3.3a74.7634,74.7634,0,0,0,2.56-38.41Zm-342.46-14.95c1.35-.17,2.69-.33,4.04-.48,1.39-.16,2.78-.32,4.17-.46,1.44-.15,2.87-.29,4.31-.43,1.48-.14,2.97-.28,4.45-.4.3-.04.61-.06.92-.08,1.81-.16,3.61-.29,5.42-.42q2.865-.21,5.74-.36c1.91-.11,3.82-.21,5.73-.28,1.52-.07,3.05-.12,4.57-.17.14,0,.29-.01.43-.01.82-.03,1.65-.06,2.47-.07,1.06-.04,2.11-.06,3.16-.07,1.21-.03,2.42-.04,3.64-.04q1.47-.03,2.94-.03h1.57c-.86,0-1.71.01-2.57.03.98-.02,1.97-.03,2.95-.02.77-.01,1.55,0,2.32.01.3,0,.59,0,.89.01.65,0,1.31.01,1.97.02q3.165.0449,6.33.14c.47.01.95.03,1.42.05,1.15.03,2.31.07,3.47.12,1.85.08,3.7.17,5.56.27,1.62.08,3.24.18,4.86.29,1.62.1,3.24.22,4.85.35,1.62.12,3.23.25,4.85.4,1.62.13,3.23.29,4.85.46,1.61.15,3.23.32,4.84.51,1.43.16,2.86.33,4.28.5q5.925.72,11.83,1.6c1.22.18,2.43.37,3.65.56.03.01.07.01.11.02a436,436,0,0,1,101.15,28.87,137.1544,137.1544,0,0,0-95.57,5.83,141.0989,141.0989,0,0,0-45.07,31.87,147.6553,147.6553,0,0,0-27.69,41.06,147.8379,147.8379,0,0,0-27.68-41.06,141.2087,141.2087,0,0,0-45.07-31.87,137.0557,137.0557,0,0,0-96.57-5.51A435.0293,435.0293,0,0,1,283.9028,88.7584Zm71.36,265.9-18.52,19.14-18.52-19.14a147.138,147.138,0,0,0,18.52-30.47A147.138,147.138,0,0,0,355.2628,354.6584Zm-277.55-236.51a43.9425,43.9425,0,0,1,1.34-10.61,42.5444,42.5444,0,0,1,5.73-12.85,104.9315,104.9315,0,0,0,64.8,32.29,141.2771,141.2771,0,0,0-41.82,30.37q-1.575,1.65-3.08,3.34a55.4544,55.4544,0,0,1-18.49-17.32C83.7428,139.6384,77.7528,130.2883,77.7128,118.1484Zm130.7,19.55c58.52,0,107.05,44.8,116.21,103.48v.01a130.3355,130.3355,0,0,1,0,40.21v.01c-9.16,58.7-57.69,103.48-116.21,103.48-65.04,0-117.77-55.33-117.77-123.59S143.3728,137.6984,208.4128,137.6984Zm15.04,418.92c-6.48,0-11.94-8.01-11.94-17.49,0-9.47,5.46-17.48,11.94-17.48,6.47,0,11.94,8.01,11.94,17.48C235.3928,548.6083,229.9228,556.6183,223.4528,556.6183Zm45.66,12.09c-6.48,0-11.95-8-11.95-17.48s5.47-17.49,11.95-17.49c6.47,0,11.94,8.01,11.94,17.49S275.5828,568.7084,269.1128,568.7084Zm135.26,0c-6.47,0-11.94-8-11.94-17.48s5.47-17.49,11.94-17.49,11.94,8.01,11.94,17.49S410.8428,568.7084,404.3728,568.7084Zm57.6-29.58c0,9.48-5.47,17.49-11.94,17.49-6.48,0-11.94-8.01-11.94-17.49,0-9.47,5.46-17.48,11.94-17.48C456.5028,521.6484,461.9728,529.6584,461.9728,539.1283Zm18.18-35.64q-7.725,3.7952-15.84,6.87a24.4038,24.4038,0,0,0-14.28-4.71c-11.93,0-22.14,9.01-26.13,21.65-5.04-5.91-11.93-9.56-19.53-9.56-15.41,0-27.94,15.02-27.94,33.49,0,1.18.05,2.34.15,3.49h-79.68c.1-1.15.15-2.31.15-3.49,0-18.47-12.54-33.49-27.94-33.49-7.6,0-14.49,3.65-19.53,9.56-3.99-12.64-14.2-21.65-26.13-21.65a24.4038,24.4038,0,0,0-14.28,4.71q-8.115-3.06-15.84-6.88c-59.18-29.11-100.41-89.34-102.2-159.21a145.5274,145.5274,0,0,0,16.63,20.98,141.2069,141.2069,0,0,0,45.07,31.87,137.1132,137.1132,0,0,0,111.16,0,140.3467,140.3467,0,0,0,37.89-24.84l18.16,18.77-.11.12,3.53,3.42,13.01,13.44.27.28,13.28-13.72,3.53-3.42-.11-.12,18.16-18.77a140.3978,140.3978,0,0,0,37.9,24.84,137.09,137.09,0,0,0,111.15,0,141.097,141.097,0,0,0,45.07-31.87,145.98,145.98,0,0,0,16.62-20.96C580.5528,414.1484,539.3228,474.3683,480.1528,503.4883Zm-15.07-118.6c-58.52,0-107.06-44.79-116.21-103.49a130.3355,130.3355,0,0,1,0-40.21c9.15-58.69,57.69-103.49,116.21-103.49,65.04,0,117.76,55.34,117.76,123.6S530.1228,384.8884,465.0828,384.8884Zm130.68-266.76v.02c-.04,12.13-6.03,21.47-8.48,25.2a55.37,55.37,0,0,1-18.5,17.32q-1.5-1.68-3.06-3.32a141.1489,141.1489,0,0,0-41.82-30.37,104.9057,104.9057,0,0,0,64.8-32.29c.72,1.1,1.4,2.22,2.02,3.38.06.12.13.24.19.36.18.34.36.69.53,1.05.13.26.26.53.39.8.18.4.36.8.54,1.21a40.5952,40.5952,0,0,1,1.53,4.21c.16.48.3.97.42,1.46a.09.09,0,0,1,.01.05c.04.1.06.21.09.31.09.33.25.99.43,1.88.08.37.16.78.24,1.22.06.35.12.72.18,1.12.12.83.24,1.75.33,2.73.02.25.04.5.06.76.03.48.06.97.07,1.48q.03.66.03,1.35Z"/>
    </g>
  </g>
</svg>
