<svg id="Layer_1" data-name="Layer 1" xmlns="http://www.w3.org/2000/svg" width="1000" height="1000" viewBox="0 0 1000 1000">
  <defs>
    <style>
      .cls-1 {
        fill: none;
        stroke: #000;
        stroke-miterlimit: 10;
        stroke-width: 32px;
      }

      .cls-2 {
        fill: #0095d0;
      }

      .cls-3 {
        fill: #bfd3d6;
      }

      .cls-4 {
        fill: #fffdfe;
      }

      .cls-5 {
        fill: #ff9b00;
      }

      .cls-6 {
        fill: #fffff;
      }
    </style>
  </defs>
  <g class="cls-6">
    <path d="M251.3108,848.8725V782.5736H202.4319v66.2989H143.6731V669.476h58.7588v64.999h48.8789V669.476H310.07V848.8725Z"/>
    <path d="M425.7688,851.9926c-55.8984,0-97.498-34.06-97.498-92.5586s41.6-92.8184,97.498-92.8184,97.4981,34.3194,97.4981,92.8184S481.6682,851.9926,425.7688,851.9926Zm0-135.7178c-23.3994,0-38.4785,17.16-38.4785,41.8594s15.0791,41.8594,38.4785,41.8594,38.22-17.16,38.22-41.8594S449.1682,716.2748,425.7688,716.2748Z"/>
    <path d="M631.1673,851.9926c-55.8985,0-97.4981-34.06-97.4981-92.5586s41.6-92.8184,97.4981-92.8184,97.498,34.3194,97.498,92.8184S687.0657,851.9926,631.1673,851.9926Zm0-135.7178c-23.3995,0-38.4786,17.16-38.4786,41.8594s15.0791,41.8594,38.4786,41.8594,38.22-17.16,38.22-41.8594S654.5667,716.2748,631.1673,716.2748Z"/>
    <path d="M826.9456,715.2348V848.8725H768.1868V715.2348H726.0677V669.476H869.3245v45.7588Z"/>
  </g>
  <g class="cls-6">
    <line class="cls-1" x1="129.5182" y1="627.9678" x2="870.4818" y2="627.9678"/>
    <line class="cls-1" x1="129.5182" y1="890.6404" x2="870.4818" y2="890.6404"/>
  </g>
  <g>
    <polygon class="cls-2" points="253.905 135.503 312.845 169.346 406.044 142.634 505.583 128.535 601.355 142.634 652.901 151.864 687.165 169.346 752.44 137.494 773.343 157.402 768.366 209.162 759.025 410.231 723.095 529.677 635.881 594.212 619.057 633.889 392.04 633.889 368.266 613.794 359.842 578.824 276.91 526.691 241.975 446.613 240.975 222.102 226.874 176.314 240.975 142.634 253.905 135.503"/>
    <path class="cls-3" d="M625.8073,573.91c27.1294-31.8737,44.3469-74.0622,46.23-120.6375a48.0732,48.0732,0,0,1-9.6471,2.66c-15.8409,2.6385-31.8154.4382-47.3243-3.28a310.7962,310.7962,0,0,1-30.4389-9.286c-15.2669-5.3613-29.2422-11.1229-41.421-22.1016-11.006-9.9214-18.8154-23.0878-24.8982-36.4522-1.1468-2.52-2.2925-5.0608-3.3974-7.6167H482.0062c-1.662,1.753-3.1349,3.3347-3.4164,3.6395-11.0856,12.0071-20.6979,25.4272-32.9788,36.2978-15.643,13.8465-33.6819,22.7942-53.6306,28.7621-20.3986,6.1026-42.9448,8.4492-63.5385,1.9115-.1645-.0522-.3169-.1207-.479-.1762.6666,48.775,18.1385,93.069,46.3278,126.2181a24.9073,24.9073,0,0,0-10.1621,20.3633c0,13.4686,10.1123,24.3871,22.5864,24.3871,9.2059,0,17.12-5.95,20.6376-14.48.8128.5722,1.6327,1.1329,2.4547,1.69-.0126.3355-.0236.6715-.0236,1.01,0,13.4687,10.1122,24.3871,22.5863,24.3871a21.6056,21.6056,0,0,0,15.1576-6.3082,158.0843,158.0843,0,0,0,104.9907.0383,21.6,21.6,0,0,0,15.1167,6.27c12.4741,0,22.5864-10.9184,22.5864-24.3871,0-.3034-.011-.6039-.0212-.9046.8351-.5651,1.662-1.1432,2.4876-1.7235,3.5328,8.4907,11.4277,14.407,20.6072,14.407,12.4741,0,22.5864-10.9185,22.5864-24.3871A24.9194,24.9194,0,0,0,625.8073,573.91Z"/>
    <path class="cls-4" d="M628.495,187.5633A129.55,129.55,0,0,0,500,300.6458a129.5211,129.5211,0,1,0,0,32.8927A129.5362,129.5362,0,1,0,628.495,187.5633Z"/>
    <g>
      <ellipse class="cls-5" cx="432.37" cy="610.5772" rx="19.4207" ry="23.3116"/>
      <ellipse class="cls-5" cx="386.715" cy="596.065" rx="18.601" ry="22.3277"/>
      <ellipse class="cls-5" cx="567.635" cy="610.5772" rx="17.485" ry="20.9881"/>
      <ellipse class="cls-5" cx="613.295" cy="596.065" rx="18.601" ry="22.3277"/>
    </g>
    <polygon class="cls-5" points="470.2 417.461 500 447.986 533.573 415.47 501.887 367.36 470.2 417.461"/>
    <g>
      <path d="M368.2656,242.7794c-40.5,0-73.3317,33.9544-73.3317,75.8393s32.8318,75.8395,73.3317,75.8395,73.3317-33.9545,73.3317-75.8395S408.7656,242.7794,368.2656,242.7794ZM341.3707,352.03a18.4712,18.4712,0,1,1,18.4712-18.4712A18.4712,18.4712,0,0,1,341.3707,352.03ZM392.04,327.71a28.809,28.809,0,1,1,28.8089-28.809A28.809,28.809,0,0,1,392.04,327.71Z"/>
      <path d="M558.4179,318.6187c0,41.885,32.8317,75.8395,73.3316,75.8395s73.3317-33.9545,73.3317-75.8395S672.25,242.7794,631.75,242.7794,558.4179,276.7338,558.4179,318.6187Zm68.2969-19.718a28.8089,28.8089,0,1,1,28.8089,28.809A28.8089,28.8089,0,0,1,626.7148,298.9007Zm-40.3314,34.6576A18.4712,18.4712,0,1,1,604.8546,352.03,18.4712,18.4712,0,0,1,586.3834,333.5583Z"/>
      <path d="M789.625,160.8844c-.19-.93-.39-1.85-.61-2.76-.11-.47-.22-.94-.34-1.4q-.36-1.35-.75-2.7v-.02c-.14-.48-.29-.96-.45-1.43-.08-.26-.16-.52-.26-.78l-.36-1.05a.2967.2967,0,0,0-.04-.11c-.12-.34-.24-.68-.37-1.02a69.91,69.91,0,0,0-2.92-6.84c-.24-.49-.49-.99-.74-1.48-.26-.49-.51-.97-.78-1.46-.26-.48-.53-.96-.8-1.44-1.1-1.9-2.28-3.76-3.53-5.56-1.25-1.81-2.59-3.56-4-5.24-.01-.01-.02-.03-.04-.04-.92-1.12-1.86-2.2-2.85-3.25a75,75,0,0,0-17.0988-13.5826,10.0157,10.0157,0,0,0-13.833,3.8422,73.3382,73.3382,0,0,1-49.6882,36.75,1.1627,1.1627,0,0,1-.18.04,468.1971,468.1971,0,0,0-164.79-40.02c-1.14-.06-2.29-.12-3.43-.18-1.5-.07-3.01-.14-4.52-.2-1.39-.05-2.79-.09-4.19-.13q-6.06-.18-12.13-.19h-1c-1.31,0-2.61.01-3.92.02-1.03.01-2.05.02-3.08.04-.77.01-1.53.02-2.29.04-1.04.02-2.07.04-3.1.07-.49.01-.97.03-1.46.04-.8.03-1.6.06-2.39.08q-3.09.12-6.16.27c-1.03.05-2.06.1-3.09.16q-4.62.255-9.24.62c-.88.06-1.77.13-2.66.21-.3.01-.59.04-.89.07q-5.91.495-11.83,1.15c-3.01.33-6.03.69-9.04,1.08q-2.115.27-4.23.57a467.7319,467.7319,0,0,0-126.52,36.29l-.013.0014a73.2859,73.2859,0,0,1-49.8582-36.7788,10.0152,10.0152,0,0,0-13.8328-3.8438,75.1815,75.1815,0,0,0-17.106,13.5812l-2.89,3.29c-1.4,1.68-2.74,3.43-4,5.24a74.3407,74.3407,0,0,0,0,85.01v178.85a215.0309,215.0309,0,0,0,134.27,199.12v5.27a42.81,42.81,0,0,0,42.81,42.81h201.2a42.8591,42.8591,0,0,0,42.81-42.81v-5.27a215.0465,215.0465,0,0,0,134.26-199.12v-178.87c.99-1.41,1.92-2.87,2.81-4.35.45-.74.88-1.49,1.3-2.25s.82-1.53,1.22-2.3c.19-.38.38-.77.58-1.15-.01-.01-.01-.01,0-.01.37-.79.74-1.57,1.09-2.37.22-.5.43-1,.64-1.5.18-.43.36-.86.53-1.3.43-1.09.84-2.19,1.22-3.3a74.7638,74.7638,0,0,0,2.56-38.41Zm-342.46-14.95c1.35-.17,2.69-.33,4.04-.48,1.39-.16,2.78-.32,4.17-.46,1.44-.15,2.87-.29,4.31-.43,1.48-.14,2.97-.28,4.45-.4.3-.04.61-.06.92-.08,1.81-.16,3.61-.29,5.42-.42q2.865-.21,5.74-.36c1.91-.11,3.82-.21,5.73-.28,1.52-.07,3.05-.12,4.57-.17.14,0,.29-.01.43-.01.82-.03,1.65-.06,2.47-.07,1.06-.04,2.11-.06,3.16-.07,1.21-.03,2.42-.04,3.64-.04q1.47-.03,2.94-.03h1.57c-.86,0-1.71.01-2.57.03.98-.02,1.97-.03,2.95-.02.77-.01,1.55,0,2.32.01.3,0,.59,0,.89.01.65,0,1.31.01,1.97.02q3.165.045,6.33.14c.47.01.95.03,1.42.05,1.15.03,2.31.07,3.47.12,1.85.08,3.7.17,5.56.27,1.62.08,3.24.18,4.86.29,1.62.1,3.24.22,4.85.35,1.62.12,3.23.25,4.85.4,1.62.13,3.23.29,4.85.46,1.61.15,3.23.32,4.84.51,1.43.16,2.86.33,4.28.5q5.925.72,11.83,1.6c1.22.18,2.43.37,3.65.56.03.01.07.01.11.02a436.005,436.005,0,0,1,101.15,28.87,137.1537,137.1537,0,0,0-95.57,5.83,141.0986,141.0986,0,0,0-45.07,31.87,147.6582,147.6582,0,0,0-27.69,41.06,147.8408,147.8408,0,0,0-27.68-41.06,141.2084,141.2084,0,0,0-45.07-31.87,137.0551,137.0551,0,0,0-96.57-5.51A435.0331,435.0331,0,0,1,447.165,145.9344Zm71.36,265.9-18.52,19.14-18.52-19.14a147.1373,147.1373,0,0,0,18.52-30.47A147.1373,147.1373,0,0,0,518.525,411.8344Zm-277.55-236.51a43.9413,43.9413,0,0,1,1.34-10.61,42.5422,42.5422,0,0,1,5.73-12.85,104.932,104.932,0,0,0,64.8,32.29,141.275,141.275,0,0,0-41.82,30.37q-1.575,1.65-3.08,3.34a55.4544,55.4544,0,0,1-18.49-17.32C247.005,196.8144,241.015,187.4644,240.975,175.3244Zm130.7,19.55c58.52,0,107.05,44.8,116.21,103.48v.01a130.3348,130.3348,0,0,1,0,40.21v.01c-9.16,58.7-57.69,103.48-116.21,103.48-65.04,0-117.77-55.33-117.77-123.59S306.635,194.8744,371.675,194.8744Zm15.04,418.92c-6.48,0-11.94-8.01-11.94-17.49,0-9.47,5.46-17.48,11.94-17.48,6.47,0,11.94,8.01,11.94,17.48C398.655,605.7844,393.185,613.7944,386.715,613.7944Zm45.66,12.09c-6.48,0-11.95-8-11.95-17.48s5.47-17.49,11.95-17.49c6.47,0,11.94,8.01,11.94,17.49S438.845,625.8844,432.375,625.8844Zm135.26,0c-6.47,0-11.94-8-11.94-17.48s5.47-17.49,11.94-17.49,11.94,8.01,11.94,17.49S574.105,625.8844,567.635,625.8844Zm57.6-29.58c0,9.48-5.47,17.49-11.94,17.49-6.48,0-11.94-8.01-11.94-17.49,0-9.47,5.46-17.48,11.94-17.48C619.765,578.8244,625.235,586.8344,625.235,596.3044Zm18.18-35.64q-7.725,3.795-15.84,6.87a24.4039,24.4039,0,0,0-14.28-4.71c-11.93,0-22.14,9.01-26.13,21.65-5.04-5.91-11.93-9.56-19.53-9.56-15.41,0-27.94,15.02-27.94,33.49,0,1.18.05,2.34.15,3.49h-79.68c.1-1.15.15-2.31.15-3.49,0-18.47-12.54-33.49-27.94-33.49-7.6,0-14.49,3.65-19.53,9.56-3.99-12.64-14.2-21.65-26.13-21.65a24.4039,24.4039,0,0,0-14.28,4.71q-8.115-3.06-15.84-6.88c-59.18-29.11-100.41-89.34-102.2-159.21a145.5283,145.5283,0,0,0,16.63,20.98,141.2084,141.2084,0,0,0,45.07,31.87,137.1142,137.1142,0,0,0,111.16,0,140.3471,140.3471,0,0,0,37.89-24.84l18.16,18.77-.11.12,3.53,3.42,13.01,13.44.27.28,13.28-13.72,3.53-3.42-.11-.12,18.16-18.77a140.3981,140.3981,0,0,0,37.9,24.84,137.0906,137.0906,0,0,0,111.15,0,141.0986,141.0986,0,0,0,45.07-31.87,145.9855,145.9855,0,0,0,16.62-20.96C743.815,471.3244,702.585,531.5444,643.415,560.6644Zm-15.07-118.6c-58.52,0-107.06-44.79-116.21-103.49a130.3348,130.3348,0,0,1,0-40.21c9.15-58.69,57.69-103.49,116.21-103.49,65.04,0,117.76,55.34,117.76,123.6S693.385,442.0644,628.345,442.0644Zm130.68-266.76v.02c-.04,12.13-6.03,21.47-8.48,25.2a55.37,55.37,0,0,1-18.5,17.32q-1.5-1.68-3.06-3.32a141.1469,141.1469,0,0,0-41.82-30.37,104.9062,104.9062,0,0,0,64.8-32.29c.72,1.1,1.4,2.22,2.02,3.38.06.12.13.24.19.36.18.34.36.69.53,1.05.13.26.26.53.39.8.18.4.36.8.54,1.21a40.5935,40.5935,0,0,1,1.53,4.21c.16.48.3.97.42,1.46a.09.09,0,0,1,.01.05c.04.1.06.21.09.31.09.33.25.99.43,1.88.08.37.16.78.24,1.22.06.35.12.72.18,1.12.12.83.24,1.75.33,2.73.02.25.04.5.06.76.03.48.06.97.07,1.48q.03.66.03,1.35Z"/>
    </g>
  </g>
</svg>
