<svg id="_ÎÓÈ_1" data-name="—ÎÓÈ_1" xmlns="http://www.w3.org/2000/svg" width="2685.1437" height="728.6789" viewBox="0 0 2685.1437 728.6789">
  <defs>
    <style>
      .cls-1 {
        fill: #0095d0;
      }
    </style>
  </defs>
  <g>
    <polygon class="cls-1" points="1014.747 88.479 1083.22 299.218 1304.803 299.218 1125.539 429.461 1194.012 640.2 1014.747 509.956 835.482 640.2 903.955 429.461 724.69 299.218 946.274 299.218 1014.747 88.479"/>
    <g>
      <polygon class="cls-1" points="359.097 88.479 427.57 299.218 649.153 299.218 469.889 429.461 538.362 640.2 359.097 509.956 179.832 640.2 248.305 429.461 69.04 299.218 290.624 299.218 359.097 88.479"/>
      <polygon class="cls-1" points="1670.397 88.479 1738.87 299.218 1960.453 299.218 1781.189 429.461 1849.662 640.2 1670.397 509.956 1491.132 640.2 1559.605 429.461 1380.34 299.218 1601.924 299.218 1670.397 88.479"/>
    </g>
    <polygon class="cls-1" points="2326.047 88.479 2394.52 299.218 2616.103 299.218 2436.838 429.461 2505.312 640.2 2326.047 509.956 2146.782 640.2 2215.255 429.461 2035.99 299.218 2257.574 299.218 2326.047 88.479"/>
  </g>
</svg>
