<svg xmlns="http://www.w3.org/2000/svg" xmlns:xlink="http://www.w3.org/1999/xlink" width="2189.4167" height="2189.0997" viewBox="0 0 2189.4167 2189.0997">
  <defs>
    <style>
      .cls-1 {
        mask: url(#mask);
        filter: url(#luminosity-noclip-3);
      }

      .cls-2, .cls-4 {
        mix-blend-mode: multiply;
      }

      .cls-2 {
        fill: url(#radial-gradient);
      }

      .cls-3 {
        mask: url(#mask-2);
        filter: url(#luminosity-noclip-4);
      }

      .cls-4 {
        fill: url(#radial-gradient-2);
      }

      .cls-5 {
        fill: none;
      }

      .cls-6 {
        fill: #dfe0e7;
      }

      .cls-7 {
        isolation: isolate;
      }

      .cls-8 {
        clip-path: url(#clip-path);
      }

      .cls-9 {
        fill: url(#radial-gradient-3);
      }

      .cls-10 {
        opacity: 0.8;
      }

      .cls-10, .cls-38, .cls-39, .cls-40 {
        mix-blend-mode: lighten;
      }

      .cls-11 {
        fill: url(#radial-gradient-4);
      }

      .cls-12 {
        fill: url(#radial-gradient-5);
      }

      .cls-13 {
        fill: url(#radial-gradient-6);
      }

      .cls-14 {
        fill: url(#radial-gradient-7);
      }

      .cls-15 {
        fill: url(#radial-gradient-8);
      }

      .cls-16 {
        fill: url(#radial-gradient-9);
      }

      .cls-17 {
        fill: url(#radial-gradient-10);
      }

      .cls-18 {
        fill: url(#radial-gradient-11);
      }

      .cls-19 {
        fill: url(#radial-gradient-12);
      }

      .cls-20 {
        fill: url(#radial-gradient-13);
      }

      .cls-21 {
        fill: url(#radial-gradient-14);
      }

      .cls-22 {
        fill: url(#radial-gradient-15);
      }

      .cls-23 {
        fill: url(#radial-gradient-16);
      }

      .cls-24 {
        fill: url(#radial-gradient-17);
      }

      .cls-25 {
        fill: url(#radial-gradient-18);
      }

      .cls-26 {
        fill: url(#radial-gradient-19);
      }

      .cls-27 {
        fill: url(#radial-gradient-20);
      }

      .cls-28 {
        fill: url(#radial-gradient-21);
      }

      .cls-29 {
        fill: url(#radial-gradient-22);
      }

      .cls-30 {
        fill: url(#radial-gradient-23);
      }

      .cls-31 {
        fill: url(#radial-gradient-24);
      }

      .cls-32 {
        fill: url(#radial-gradient-25);
      }

      .cls-33 {
        fill: url(#radial-gradient-26);
      }

      .cls-34 {
        fill: url(#radial-gradient-27);
      }

      .cls-35 {
        fill: url(#radial-gradient-28);
      }

      .cls-36 {
        mask: url(#mask-3);
      }

      .cls-37 {
        opacity: 0.4;
        fill: url(#radial-gradient-29);
      }

      .cls-37, .cls-41, .cls-43, .cls-44, .cls-45 {
        mix-blend-mode: screen;
      }

      .cls-38, .cls-39, .cls-40, .cls-41, .cls-44, .cls-45 {
        fill: #616691;
      }

      .cls-38, .cls-44 {
        opacity: 0.3;
      }

      .cls-39 {
        opacity: 0.12;
      }

      .cls-40, .cls-41, .cls-43 {
        opacity: 0.2;
      }

      .cls-42 {
        mask: url(#mask-4);
      }

      .cls-43 {
        fill: url(#radial-gradient-30);
      }

      .cls-45 {
        opacity: 0.25;
      }

      .cls-46, .cls-47 {
        fill: #d1d3dd;
      }

      .cls-46 {
        opacity: 0.1;
      }

      .cls-47 {
        opacity: 0.34;
      }

      .cls-48 {
        clip-path: url(#clip-path-3);
      }

      .cls-49 {
        fill: #caccda;
      }

      .cls-50 {
        fill: #fff;
      }

      .cls-51 {
        fill: #0b8459;
      }

      .cls-52 {
        fill: #0095d0;
      }

      .cls-53 {
        fill: #bfd3d6;
      }

      .cls-54 {
        fill: #fffdfe;
      }

      .cls-55 {
        fill: #ff9b00;
      }

      .cls-56 {
        fill: url(#linear-gradient);
      }

      .cls-57 {
        fill: url(#linear-gradient-2);
      }

      .cls-58 {
        filter: url(#luminosity-noclip-2);
      }

      .cls-59 {
        filter: url(#luminosity-noclip);
      }
    </style>
    <filter id="luminosity-noclip" x="1020.8889" y="-7723.8428" width="785.6469" height="32766" filterUnits="userSpaceOnUse" color-interpolation-filters="sRGB">
      <feFlood flood-color="#fff" result="bg"/>
      <feBlend in="SourceGraphic" in2="bg"/>
    </filter>
    <mask id="mask" x="1020.8889" y="-7723.8428" width="785.6469" height="32766" maskUnits="userSpaceOnUse">
      <g class="cls-59"/>
    </mask>
    <radialGradient id="radial-gradient" cx="3100.0652" cy="3187.6266" r="392.8135" gradientTransform="matrix(0, -1, -1, 0, 4601.339, 3860.5987)" gradientUnits="userSpaceOnUse">
      <stop offset="0" stop-color="#fff"/>
      <stop offset="1"/>
    </radialGradient>
    <filter id="luminosity-noclip-2" x="1935.0176" y="-7723.8428" width="433.6151" height="32766" filterUnits="userSpaceOnUse" color-interpolation-filters="sRGB">
      <feFlood flood-color="#fff" result="bg"/>
      <feBlend in="SourceGraphic" in2="bg"/>
    </filter>
    <mask id="mask-2" x="1935.0176" y="-7723.8428" width="433.6151" height="32766" maskUnits="userSpaceOnUse">
      <g class="cls-58"/>
    </mask>
    <radialGradient id="radial-gradient-2" cx="2127.7931" cy="2449.5138" r="216.7961" xlink:href="#radial-gradient"/>
    <clipPath id="clip-path">
      <rect class="cls-5" x="-31" y="-210.7657" width="2250.4167" height="3990.1136"/>
    </clipPath>
    <radialGradient id="radial-gradient-3" cx="1094.1791" cy="3691.8009" r="2501.9026" gradientTransform="translate(0.0005 -1624.8955)" gradientUnits="userSpaceOnUse">
      <stop offset="0" stop-color="#1f2450"/>
      <stop offset="0.2245" stop-color="#171a40"/>
      <stop offset="0.7231" stop-color="#060720"/>
      <stop offset="1" stop-color="#000014"/>
    </radialGradient>
    <radialGradient id="radial-gradient-4" cx="1972.5592" cy="875.8621" r="15.1352" gradientUnits="userSpaceOnUse">
      <stop offset="0" stop-color="#8aa5c1"/>
      <stop offset="0.5722" stop-color="#606d93"/>
      <stop offset="1" stop-color="#3e416f"/>
    </radialGradient>
    <radialGradient id="radial-gradient-5" cx="1321.6146" cy="958.5617" r="12.6103" xlink:href="#radial-gradient-4"/>
    <radialGradient id="radial-gradient-6" cx="454.5241" cy="176.8975" r="12.6122" xlink:href="#radial-gradient-4"/>
    <radialGradient id="radial-gradient-7" cx="2289.2563" cy="494.8856" r="15.1373" gradientTransform="translate(-1174.9393 -461.0875) scale(1.21 1.2)" xlink:href="#radial-gradient-4"/>
    <radialGradient id="radial-gradient-8" cx="1201.2573" cy="11.153" r="12.6143" xlink:href="#radial-gradient-4"/>
    <radialGradient id="radial-gradient-9" cx="1678.8393" cy="567.9157" r="12.6217" xlink:href="#radial-gradient-4"/>
    <radialGradient id="radial-gradient-10" cx="1967.6788" cy="325.4469" r="12.6154" xlink:href="#radial-gradient-4"/>
    <radialGradient id="radial-gradient-11" cx="2151.2947" cy="653.9458" r="12.6119" xlink:href="#radial-gradient-4"/>
    <radialGradient id="radial-gradient-12" cx="1259.5645" cy="306.766" r="12.6124" xlink:href="#radial-gradient-4"/>
    <radialGradient id="radial-gradient-13" cx="1723.3122" cy="1211.2312" r="12.6147" gradientTransform="translate(-2360.4739 -1095.088) scale(1.4641 1.44)" xlink:href="#radial-gradient-4"/>
    <radialGradient id="radial-gradient-14" cx="397.9354" cy="880.4837" r="12.6146" xlink:href="#radial-gradient-4"/>
    <radialGradient id="radial-gradient-15" cx="88.9348" cy="1164.8061" r="15.1344" xlink:href="#radial-gradient-4"/>
    <radialGradient id="radial-gradient-16" cx="1013.7466" cy="989.3854" r="15.1376" xlink:href="#radial-gradient-4"/>
    <radialGradient id="radial-gradient-17" cx="1349.179" cy="648.9336" r="12.6124" xlink:href="#radial-gradient-4"/>
    <radialGradient id="radial-gradient-18" cx="237.0952" cy="1541.7933" r="12.6156" xlink:href="#radial-gradient-4"/>
    <radialGradient id="radial-gradient-19" cx="1816.7526" cy="1118.7573" r="15.1391" xlink:href="#radial-gradient-4"/>
    <radialGradient id="radial-gradient-20" cx="2243.0599" cy="1532.2401" r="15.1419" gradientTransform="translate(-1174.9393 -461.0875) scale(1.21 1.2)" xlink:href="#radial-gradient-4"/>
    <radialGradient id="radial-gradient-21" cx="1678.8393" cy="1970.2877" r="12.6171" xlink:href="#radial-gradient-4"/>
    <radialGradient id="radial-gradient-22" cx="1841.1751" cy="1547.2337" r="12.6167" xlink:href="#radial-gradient-4"/>
    <radialGradient id="radial-gradient-23" cx="2078.0919" cy="2056.3107" r="12.6188" xlink:href="#radial-gradient-4"/>
    <radialGradient id="radial-gradient-24" cx="654.9567" cy="1515.4398" r="12.611" xlink:href="#radial-gradient-4"/>
    <radialGradient id="radial-gradient-25" cx="465.4025" cy="1264.4615" r="12.6159" xlink:href="#radial-gradient-4"/>
    <radialGradient id="radial-gradient-26" cx="1723.3122" cy="2119.9745" r="12.6175" gradientTransform="translate(-2360.4739 -1095.088) scale(1.4641 1.44)" xlink:href="#radial-gradient-4"/>
    <radialGradient id="radial-gradient-27" cx="2091.3243" cy="1307.9617" r="12.6106" xlink:href="#radial-gradient-4"/>
    <radialGradient id="radial-gradient-28" cx="1021.4471" cy="1880.1304" r="12.6172" xlink:href="#radial-gradient-4"/>
    <filter id="luminosity-noclip-3" x="1020.8889" y="367.7299" width="785.6469" height="785.607" filterUnits="userSpaceOnUse" color-interpolation-filters="sRGB">
      <feFlood flood-color="#fff" result="bg"/>
      <feBlend in="SourceGraphic" in2="bg"/>
    </filter>
    <mask id="mask-3" x="1020.8889" y="367.7299" width="785.6469" height="785.607" maskUnits="userSpaceOnUse">
      <g class="cls-1">
        <path class="cls-2" d="M1413.7347,367.73c216.9625,0,392.8011,175.8388,392.8011,392.7836,0,216.9683-175.8386,392.8234-392.8011,392.8234s-392.8458-175.8551-392.8458-392.8234C1020.8889,543.5687,1196.7723,367.73,1413.7347,367.73Z"/>
      </g>
    </mask>
    <radialGradient id="radial-gradient-29" cx="3100.0652" cy="3187.6266" r="392.8135" gradientTransform="matrix(0, -1, -1, 0, 4601.339, 3860.5987)" gradientUnits="userSpaceOnUse">
      <stop offset="0" stop-color="#616691"/>
      <stop offset="1" stop-color="#616691"/>
    </radialGradient>
    <filter id="luminosity-noclip-4" x="1935.0176" y="1516.0209" width="433.6151" height="433.5694" filterUnits="userSpaceOnUse" color-interpolation-filters="sRGB">
      <feFlood flood-color="#fff" result="bg"/>
      <feBlend in="SourceGraphic" in2="bg"/>
    </filter>
    <mask id="mask-4" x="1935.0176" y="1516.0209" width="433.6151" height="433.5694" maskUnits="userSpaceOnUse">
      <g class="cls-3">
        <path class="cls-4" d="M2151.831,1516.0209c119.7416,0,216.8017,97.0378,216.8017,216.7736s-97.06,216.7958-216.8017,216.7958-216.8134-97.06-216.8134-216.7958S2032.0894,1516.0209,2151.831,1516.0209Z"/>
      </g>
    </mask>
    <radialGradient id="radial-gradient-30" cx="2127.7931" cy="2449.5138" r="216.7961" xlink:href="#radial-gradient-29"/>
    <clipPath id="clip-path-3">
      <path class="cls-6" d="M1458.4794,854.5214c0-201.1947-163.1233-364.3062-364.3109-364.3062S729.8916,653.3267,729.8916,854.5214c0,201.1994,163.088,364.3051,364.2769,364.3051S1458.4794,1055.7208,1458.4794,854.5214Z"/>
    </clipPath>
    <linearGradient id="linear-gradient" x1="910.3867" y1="3758.7571" x2="810.7817" y2="2908.6833" gradientTransform="translate(359.0909 -1394.0231) rotate(12.5686)" gradientUnits="userSpaceOnUse">
      <stop offset="0.4555" stop-color="#161b49"/>
      <stop offset="0.5514" stop-color="#252a5a"/>
      <stop offset="0.7395" stop-color="#4c5184"/>
      <stop offset="0.8283" stop-color="#61669b"/>
    </linearGradient>
    <linearGradient id="linear-gradient-2" x1="170.2089" y1="2164.5469" x2="303.0391" y2="1713.5193" gradientTransform="matrix(-1, 0, 0, 1, 2230.495, 0)" gradientUnits="userSpaceOnUse">
      <stop offset="0.4493" stop-color="#161b49"/>
      <stop offset="0.6147" stop-color="#292e5e"/>
      <stop offset="0.9545" stop-color="#5a5f93"/>
      <stop offset="1" stop-color="#61669b"/>
    </linearGradient>
  </defs>
  <g class="cls-7">
    <g id="Layer_1" data-name="Layer 1">
      <g>
        <g class="cls-8">
          <rect class="cls-9" x="-1364.0928" y="-260.8653" width="4916.5448" height="4073.9949"/>
        </g>
        <g class="cls-8">
          <g class="cls-10">
            <path class="cls-11" d="M1983.29,865.1572a15.1433,15.1433,0,1,0-.0458,21.41A15.1556,15.1556,0,0,0,1983.29,865.1572Z"/>
            <path class="cls-12" d="M1330.57,949.6449a12.6263,12.6263,0,1,0-.0457,17.8416A12.6537,12.6537,0,0,0,1330.57,949.6449Z"/>
            <path class="cls-13" d="M463.4419,167.9792a12.6117,12.6117,0,1,0,0,17.8357A12.6112,12.6112,0,0,0,463.4419,167.9792Z"/>
            <path class="cls-14" d="M1582.1271,145.6133a18.4013,18.4013,0,0,0,25.8885,0,18.0568,18.0568,0,0,0,0-25.6891,18.4336,18.4336,0,0,0-25.8885,0A18.007,18.007,0,0,0,1582.1271,145.6133Z"/>
            <path class="cls-15" d="M1192.3394,20.0746a12.6176,12.6176,0,1,0,0-17.8521A12.6091,12.6091,0,0,0,1192.3394,20.0746Z"/>
            <path class="cls-16" d="M1669.9087,576.84a12.618,12.618,0,1,0,0-17.8533A12.6112,12.6112,0,0,0,1669.9087,576.84Z"/>
            <path class="cls-17" d="M1958.7758,334.3787a12.6138,12.6138,0,1,0,0-17.8533A12.6077,12.6077,0,0,0,1958.7758,334.3787Z"/>
            <path class="cls-18" d="M2142.3577,662.8751a12.618,12.618,0,1,0,0-17.8534A12.6165,12.6165,0,0,0,2142.3577,662.8751Z"/>
            <path class="cls-19" d="M1250.6466,315.6949a12.6159,12.6159,0,1,0,0-17.8475A12.6219,12.6219,0,0,0,1250.6466,315.6949Z"/>
            <path class="cls-20" d="M149.5684,661.93a18.6932,18.6932,0,0,0,26.1185,0,17.9533,17.9533,0,0,0,0-25.6938,18.7043,18.7043,0,0,0-26.1185,0A17.9532,17.9532,0,0,0,149.5684,661.93Z"/>
            <path class="cls-21" d="M389.0175,889.4023a12.6139,12.6139,0,1,0,0-17.8416A12.6008,12.6008,0,0,0,389.0175,889.4023Z"/>
            <path class="cls-22" d="M78.2372,1175.5023a15.1308,15.1308,0,1,0,0-21.41A15.0922,15.0922,0,0,0,78.2372,1175.5023Z"/>
            <path class="cls-23" d="M1003.0192,1000.0881a15.1428,15.1428,0,1,0,0-21.41A15.1436,15.1436,0,0,0,1003.0192,1000.0881Z"/>
            <path class="cls-24" d="M1340.2616,657.851a12.6117,12.6117,0,1,0,0-17.8357A12.609,12.609,0,0,0,1340.2616,657.851Z"/>
          </g>
          <g class="cls-10">
            <path class="cls-25" d="M246.022,1532.8725a12.6134,12.6134,0,1,0-.0351,17.84A12.6,12.6,0,0,0,246.022,1532.8725Z"/>
            <path class="cls-26" d="M1806.0314,1129.452a15.1391,15.1391,0,1,0,0-21.3982A15.1347,15.1347,0,0,0,1806.0314,1129.452Z"/>
            <path class="cls-27" d="M1526.2024,1390.4483a18.4691,18.4691,0,0,0,25.9354,0,18.103,18.103,0,0,0,0-25.7,18.48,18.48,0,0,0-25.9354,0A18.07,18.07,0,0,0,1526.2024,1390.4483Z"/>
            <path class="cls-28" d="M1669.9087,1979.2031a12.6159,12.6159,0,1,0,0-17.8474A12.6112,12.6112,0,0,0,1669.9087,1979.2031Z"/>
            <path class="cls-29" d="M1832.2636,1556.1545a12.6138,12.6138,0,1,0,0-17.8416A12.6112,12.6112,0,0,0,1832.2636,1556.1545Z"/>
            <path class="cls-30" d="M2069.1579,2065.231a12.6077,12.6077,0,1,0,.0458-17.824A12.609,12.609,0,0,0,2069.1579,2065.231Z"/>
            <path class="cls-31" d="M646.0384,1524.3552a12.61,12.61,0,1,0,0-17.83A12.6113,12.6113,0,0,0,646.0384,1524.3552Z"/>
            <path class="cls-32" d="M456.4543,1273.3823a12.6263,12.6263,0,1,0,0-17.8416A12.6538,12.6538,0,0,0,456.4543,1273.3823Z"/>
            <path class="cls-33" d="M149.5684,1970.5193a18.6711,18.6711,0,0,0,26.1185,0,17.9672,17.9672,0,0,0,0-25.7055,18.7153,18.7153,0,0,0-26.1185,0A17.9671,17.9671,0,0,0,149.5684,1970.5193Z"/>
            <path class="cls-34" d="M2082.4118,1316.8837a12.61,12.61,0,1,0,0-17.8416A12.5864,12.5864,0,0,0,2082.4118,1316.8837Z"/>
            <path class="cls-35" d="M1012.503,1889.05a12.6283,12.6283,0,1,0,0-17.8474A12.6537,12.6537,0,0,0,1012.503,1889.05Z"/>
          </g>
          <g class="cls-36">
            <path class="cls-37" d="M1413.7347,367.73c216.9625,0,392.8011,175.8388,392.8011,392.7836,0,216.9683-175.8386,392.8234-392.8011,392.8234s-392.8458-175.8551-392.8458-392.8234C1020.8889,543.5687,1196.7723,367.73,1413.7347,367.73Z"/>
          </g>
          <g>
            <path class="cls-38" d="M2025.5135,576.4272a144.8717,144.8717,0,1,1,151.5186-137.921A144.8382,144.8382,0,0,1,2025.5135,576.4272Z"/>
            <path class="cls-39" d="M1592.62,698.8961a81.4786,81.4786,0,1,1,85.1927-77.5752A81.4934,81.4934,0,0,1,1592.62,698.8961Z"/>
            <path class="cls-40" d="M1740.5876,523.1382a36.2833,36.2833,0,1,1,37.9166-34.5441A36.2725,36.2725,0,0,1,1740.5876,523.1382Z"/>
            <path class="cls-41" d="M1923.0352,97.6158A72.5759,72.5759,0,1,1,1998.9036,28.5,72.5777,72.5777,0,0,1,1923.0352,97.6158Z"/>
          </g>
          <g class="cls-42">
            <path class="cls-43" d="M2151.831,1516.0209c119.7416,0,216.8017,97.0378,216.8017,216.7736s-97.06,216.7958-216.8017,216.7958-216.8134-97.06-216.8134-216.7958S2032.0894,1516.0209,2151.831,1516.0209Z"/>
          </g>
          <g>
            <path class="cls-44" d="M686.4068,1879.1753a66.168,66.168,0,1,1,25.1669,90.1182A66.1888,66.1888,0,0,1,686.4068,1879.1753Z"/>
            <path class="cls-40" d="M458.3217,2039.3883a165.8908,165.8908,0,1,1-47.3441,229.7811A165.8995,165.8995,0,0,1,458.3217,2039.3883Z"/>
            <path class="cls-45" d="M765.0246,1840.6405a37.8049,37.8049,0,1,1,14.3648,51.5025A37.802,37.802,0,0,1,765.0246,1840.6405Z"/>
          </g>
          <g>
            <path class="cls-46" d="M1619.998,854.5214c0-290.3909-235.4058-525.8131-525.8295-525.8131-290.3909,0-525.7967,235.4222-525.7967,525.8131,0,290.3956,235.4058,525.8014,525.7967,525.8014C1384.5922,1380.3228,1619.998,1144.917,1619.998,854.5214Z"/>
            <circle class="cls-47" cx="1094.1682" cy="854.5226" r="424.4185" transform="translate(-283.7643 1023.9776) rotate(-45)"/>
            <g>
              <path class="cls-6" d="M1458.4794,854.5214c0-201.1947-163.1233-364.3062-364.3109-364.3062S729.8916,653.3267,729.8916,854.5214c0,201.1994,163.088,364.3051,364.2769,364.3051S1458.4794,1055.7208,1458.4794,854.5214Z"/>
              <g class="cls-48">
                <g>
                  <path class="cls-49" d="M1486.0525,788.436a197.0179,197.0179,0,0,0-21.4218-2.0282c-25.0063-11.804-52.8092-16.6838-77.7464-5.241-30.5055,14.0046-47.9975,60.3412-65.1,87.7593-25.6949,41.2561-34.63,103.0565-93.3956,96.1088-50.7119-6.0129-117.92-53.9647-153.2359,3.5683-27.6081,44.957-24.48,90.44,22.3718,117.6172,58.4221,33.8791,117.8061,28.5348,162.3209,83.818,148.46,184.3724,267.8232-106.259,287.1135-235.1419C1556.6163,870.3747,1566.2386,800.5779,1486.0525,788.436Z"/>
                  <path class="cls-49" d="M1185.9243,839.515c18.4433,23.6035,22.6814,65.2772,58.8455,28.8386,24.5489-24.7154,29.51-69.1329,4.468-94.6319-21.8111-22.1947-85.3874-33.7994-104.4724-1.8041C1125.1314,804.7761,1169.5782,818.5978,1185.9243,839.515Z"/>
                  <path class="cls-49" d="M703.8072,724.1148c-23.2879,35.1271-77.093,59.2866-12.3249,91.43,43.9424,21.8052,105.5023,8.678,128.4125-36.13,19.9319-39.0157,7.1718-129.0893-44.0679-140.3832C723.2124,627.4148,724.5074,692.9735,703.8072,724.1148Z"/>
                </g>
              </g>
            </g>
          </g>
        </g>
      </g>
      <g>
        <path class="cls-50" d="M1921.7753,1259.0877v398.5887c0,18.7511-21.27,33.448-48.4131,33.448H316.055c-27.1435,0-48.4131-14.6969-48.4131-33.448V1259.0877c0-18.7512,21.27-33.448,48.4131-33.448H1873.3622C1900.5054,1225.64,1921.7753,1240.3365,1921.7753,1259.0877Z"/>
        <rect class="cls-51" x="322.5025" y="1284.3488" width="1544.412" height="352.5267"/>
        <g>
          <path d="M462.5715,1423.6837v111.0819H413.7291V1423.6837h-35.01v-38.0366H497.7978v38.0366Z"/>
          <path d="M576.68,1537.3591c-46.4649,0-81.0426-28.3111-81.0426-76.9368s34.5777-77.152,81.0426-77.152,81.0426,28.5271,81.0426,77.152S623.1453,1537.3591,576.68,1537.3591Zm0-112.8117c-19.45,0-31.985,14.2639-31.985,34.7944s12.5349,34.7945,31.985,34.7945,31.7691-14.2639,31.7691-34.7945S596.1305,1424.5474,576.68,1424.5474Z"/>
          <path d="M747.4123,1537.3591c-46.4649,0-81.0426-28.3111-81.0426-76.9368s34.5777-77.152,81.0426-77.152,81.0426,28.5271,81.0426,77.152S793.8771,1537.3591,747.4123,1537.3591Zm0-112.8117c-19.45,0-31.9851,14.2639-31.9851,34.7944s12.5349,34.7945,31.9851,34.7945,31.7691-14.2639,31.7691-34.7945S766.8624,1424.5474,747.4123,1424.5474Z"/>
          <path d="M899.7744,1534.7656h-56.19V1385.6471h56.19c49.49,0,84.2839,20.9632,84.2839,74.5592S949.2647,1534.7656,899.7744,1534.7656Zm3.674-109.137H892.2106v68.0751h11.2378c21.8277,0,31.3364-12.3182,31.3364-33.4974C934.7848,1438.5954,926.1406,1425.6286,903.4484,1425.6286Z"/>
          <path d="M999.1867,1534.7656V1385.6471h48.6258v109.1378h50.7865v39.9807Z"/>
          <path d="M1111.5658,1534.7656V1385.6471h105.8957v38.4684h-57.27v16.2089h54.0279v38.2516h-54.0279v17.2893h59.4308v38.9Z"/>
          <path d="M1233.67,1496.5139v-36.7394h68.0766v36.7394Z"/>
          <path d="M1409.5859,1534.7656v-55.1091h-40.6292v55.1091h-48.8409V1385.6471h48.8409v54.0287h40.6292v-54.0287h48.8425v149.1185Z"/>
          <path d="M1554.6,1537.3591c-46.4657,0-81.0426-28.3111-81.0426-76.9368s34.5769-77.152,81.0426-77.152c46.4641,0,81.041,28.5271,81.041,77.152S1601.0643,1537.3591,1554.6,1537.3591Zm0-112.8117c-19.4509,0-31.9858,14.2639-31.9858,34.7944s12.5349,34.7945,31.9858,34.7945c19.4493,0,31.7683-14.2639,31.7683-34.7945S1574.05,1424.5474,1554.6,1424.5474Z"/>
          <path d="M1725.3321,1537.3591c-46.4657,0-81.0426-28.3111-81.0426-76.9368s34.5769-77.152,81.0426-77.152c46.464,0,81.041,28.5271,81.041,77.152S1771.7961,1537.3591,1725.3321,1537.3591Zm0-112.8117c-19.4509,0-31.9859,14.2639-31.9859,34.7944s12.535,34.7945,31.9859,34.7945c19.4493,0,31.7683-14.2639,31.7683-34.7945S1744.7814,1424.5474,1725.3321,1424.5474Z"/>
        </g>
        <path d="M1880.4022,1702.6937H309.0145c-27.3947,0-48.8538-15.4223-48.8538-35.11v-418.4c0-19.688,21.4591-35.11,48.8538-35.11H1880.4022c27.3947,0,48.8538,15.4222,48.8538,35.11v418.4C1929.256,1687.2714,1907.7969,1702.6937,1880.4022,1702.6937ZM309.0145,1240.6722c-15.0976,0-22.2547,6.8267-22.2547,8.5111v418.4c0,1.6844,7.1571,8.5112,22.2547,8.5112H1880.4022c15.0976,0,22.2547-6.8268,22.2547-8.5112v-418.4c0-1.6844-7.1571-8.5111-22.2547-8.5111Zm785.6939,409.9613c-361.142,0-722.284-.0313-765.1918-.0934a17.4766,17.4766,0,0,1-17.4224-17.4556V1283.6823a17.4771,17.4771,0,0,1,17.4232-17.4557c85.8157-.1242,1444.567-.1242,1530.3827,0a17.4771,17.4771,0,0,1,17.4232,17.4557v349.4022a17.4769,17.4769,0,0,1-17.424,17.4556C1816.9915,1650.6022,1455.85,1650.6335,1094.7084,1650.6335ZM338.6934,1623.95c142.1033.1121,1369.9274.1121,1512.0308,0V1292.8164c-142.1034-.112-1369.9275-.112-1512.0308,0Z"/>
        <g>
          <polygon class="cls-52" points="890.149 818.079 939.141 846.211 1016.61 824.007 1099.349 812.288 1178.957 824.007 1221.803 831.679 1250.284 846.211 1304.542 819.734 1321.917 836.282 1317.78 879.306 1310.016 1046.439 1280.15 1145.726 1207.656 1199.369 1193.672 1232.349 1004.969 1232.349 985.208 1215.646 978.206 1186.578 909.271 1143.244 880.232 1076.681 879.401 890.062 867.68 852.002 879.401 824.007 890.149 818.079"/>
          <path class="cls-53" d="M1199.2824,1182.4927c22.5506-26.4941,36.8621-61.5622,38.4273-100.2766a39.96,39.96,0,0,1-8.0189,2.2109c-13.1672,2.1932-26.4456.3643-39.337-2.726a258.3615,258.3615,0,0,1-25.3015-7.7187c-12.69-4.4565-24.3068-9.2457-34.43-18.3714-9.1484-8.2469-15.64-19.1911-20.6959-30.3-.9533-2.0944-1.9056-4.2066-2.8241-6.3311h-27.3506c-1.3814,1.4571-2.6058,2.7719-2.84,3.0253-9.2147,9.9805-17.2046,21.1356-27.4128,30.1715-13.0028,11.5095-27.9972,18.947-44.5789,23.9077-16.9558,5.0726-35.6967,7.0232-52.8147,1.5889-.1368-.0434-.2634-.1-.3982-.1465.5541,40.5429,15.0772,77.3611,38.5087,104.9154a20.7036,20.7036,0,0,0-8.4469,16.9264c0,11.1954,8.4056,20.2711,18.7743,20.2711,7.6521,0,14.23-4.9457,17.1545-12.0357.6756.4756,1.3571.9416,2.04,1.405-.01.2789-.02.5582-.02.84,0,11.1954,8.4055,20.2711,18.7743,20.2711a17.9591,17.9591,0,0,0,12.5993-5.2435,131.4035,131.4035,0,0,0,87.2707.0318,17.9541,17.9541,0,0,0,12.5653,5.2117c10.3688,0,18.7743-9.0757,18.7743-20.2711,0-.2522-.0091-.502-.0176-.752.6942-.47,1.3815-.95,2.0678-1.4326,2.9366,7.0577,9.4989,11.9754,17.1292,11.9754,10.3688,0,18.7743-9.0757,18.7743-20.2711A20.7135,20.7135,0,0,0,1199.2824,1182.4927Z"/>
          <path class="cls-54" d="M1201.5165,861.3529A107.6847,107.6847,0,0,0,1094.7084,955.35a107.661,107.661,0,1,0,0,27.3411,107.6735,107.6735,0,1,0,106.8081-121.3379Z"/>
          <g>
            <ellipse class="cls-55" cx="1038.4929" cy="1212.9717" rx="16.1429" ry="19.3772"/>
            <ellipse class="cls-55" cx="1000.5434" cy="1200.9088" rx="15.4616" ry="18.5593"/>
            <ellipse class="cls-55" cx="1150.9282" cy="1212.9717" rx="14.5339" ry="17.4458"/>
            <ellipse class="cls-55" cx="1188.8819" cy="1200.9088" rx="15.4616" ry="18.5593"/>
          </g>
          <polygon class="cls-55" points="1069.938 1052.449 1094.708 1077.823 1122.615 1050.794 1096.277 1010.804 1069.938 1052.449"/>
          <g>
            <path d="M985.2079,907.25c-33.6645,0-60.955,28.2237-60.955,63.0394s27.2905,63.0395,60.955,63.0395,60.9549-28.2238,60.9549-63.0395S1018.8724,907.25,985.2079,907.25ZM962.8522,998.061a15.3537,15.3537,0,1,1,15.3537-15.3537A15.3537,15.3537,0,0,1,962.8522,998.061Zm42.1173-20.2152a23.9467,23.9467,0,1,1,23.9466-23.9467A23.9467,23.9467,0,0,1,1004.97,977.8458Z"/>
            <path d="M1143.2668,970.2892c0,34.8157,27.29,63.0395,60.9549,63.0395s60.955-28.2238,60.955-63.0395-27.2905-63.0394-60.955-63.0394S1143.2668,935.4735,1143.2668,970.2892Zm56.77-16.39a23.9467,23.9467,0,1,1,23.9466,23.9467A23.9467,23.9467,0,0,1,1200.0367,953.8991Zm-33.5244,28.8082a15.3537,15.3537,0,1,1,15.3537,15.3537A15.3537,15.3537,0,0,1,1166.5123,982.7073Z"/>
            <path d="M1335.4514,839.1769c-.158-.7731-.3242-1.5378-.5071-2.2942-.0914-.3907-.1828-.7814-.2825-1.1638q-.2994-1.122-.6235-2.2442v-.0167c-.1164-.3989-.2411-.798-.374-1.1886-.0665-.2161-.1331-.4323-.2162-.6484l-.2992-.8728a.2453.2453,0,0,0-.0333-.0914c-.1-.2826-.1994-.5652-.3075-.8478a58.0789,58.0789,0,0,0-2.4272-5.6856c-.2-.4073-.4073-.8229-.6151-1.23-.2161-.4073-.4239-.8063-.6483-1.2136-.2162-.399-.4406-.798-.665-1.1969-.9143-1.5794-1.8952-3.1254-2.9342-4.6216-1.039-1.5046-2.1529-2.9592-3.3249-4.3557-.0083-.0083-.0166-.0249-.0333-.0332-.7647-.931-1.546-1.8287-2.3689-2.7015a62.3464,62.3464,0,0,0-14.213-11.29,8.3251,8.3251,0,0,0-11.4982,3.1938,60.9613,60.9613,0,0,1-41.302,30.5477.9589.9589,0,0,1-.15.0333A389.1744,389.1744,0,0,0,1115.6511,797.99c-.9476-.05-1.9035-.1-2.8511-.15-1.2468-.0581-2.5019-.1163-3.7571-.1662-1.1554-.0416-2.3191-.0748-3.4828-.1081q-5.0371-.15-10.0827-.1579h-.8312c-1.0889,0-2.17.0083-3.2585.0166-.8561.0083-1.704.0166-2.56.0333-.64.0083-1.2718.0166-1.9035.0332-.8645.0166-1.7207.0333-2.5768.0582-.4073.0083-.8063.025-1.2136.0332-.665.025-1.33.05-1.9866.0665q-2.5686.1-5.12.2245c-.8562.0415-1.7124.0831-2.5685.133q-3.84.212-7.68.5153c-.7315.05-1.4713.1081-2.2111.1746-.2493.0083-.49.0332-.74.0582q-4.9125.4115-9.8333.9559c-2.502.2743-5.0123.5735-7.5143.8977q-1.758.2244-3.516.4738A388.7909,388.7909,0,0,0,936.7969,831.247l-.0107.0012a60.9173,60.9173,0,0,1-41.4434-30.5715,8.3249,8.3249,0,0,0-11.4981-3.195,62.4943,62.4943,0,0,0-14.2189,11.289l-2.4022,2.7347c-1.1637,1.3965-2.2776,2.8511-3.3249,4.3557a61.7937,61.7937,0,0,0,0,70.6622v148.6642A178.7383,178.7383,0,0,0,975.507,1200.7006v4.3805a35.5847,35.5847,0,0,0,35.5846,35.5847h167.2421a35.6255,35.6255,0,0,0,35.5846-35.5847v-4.3805a178.7516,178.7516,0,0,0,111.6-165.5131V886.5067c.8229-1.1721,1.5959-2.3856,2.3357-3.6159.374-.6151.7315-1.2385,1.0806-1.87s.6816-1.2718,1.0141-1.9118c.1579-.3159.3158-.64.4821-.9559-.0083-.0083-.0083-.0083,0-.0083.3076-.6567.6151-1.305.9061-1.97.1828-.4156.3574-.8312.5319-1.2468.15-.3575.2993-.7149.4406-1.0807.3574-.906.6982-1.82,1.014-2.743a62.1447,62.1447,0,0,0,2.128-31.9272ZM1050.7908,826.75c1.1222-.1413,2.236-.2744,3.3582-.399,1.1554-.133,2.3108-.266,3.4661-.3824,1.197-.1247,2.3857-.241,3.5826-.3574,1.23-.1164,2.4688-.2328,3.699-.3325.2493-.0333.507-.05.7647-.0665,1.5045-.133,3.0007-.2411,4.5052-.3491,1.5877-.1164,3.1753-.2162,4.7713-.2993,1.5876-.0914,3.1752-.1745,4.7628-.2327,1.2635-.0582,2.5353-.1,3.7987-.1413.1164,0,.2411-.0083.3575-.0083.6816-.025,1.3715-.05,2.0531-.0582.8811-.0333,1.7539-.05,2.6266-.0582,1.0058-.0249,2.0116-.0333,3.0257-.0333q1.2219-.0247,2.4438-.0249h1.305c-.7148,0-1.4214.0084-2.1362.0249.8146-.0165,1.6375-.0249,2.4521-.0165.64-.0084,1.2884,0,1.9284.0082.2494,0,.49,0,.74.0083.54,0,1.0889.0084,1.6375.0167q2.6308.0373,5.2617.1164c.3906.0083.79.0249,1.18.0415.9559.0249,1.92.0582,2.8843.1,1.5378.0665,3.0756.1413,4.6216.2244,1.3466.0665,2.6932.15,4.04.241,1.3466.0831,2.6932.1829,4.0314.291,1.3466.1,2.6848.2078,4.0314.3325,1.3466.108,2.6849.241,4.0315.3823,1.3382.1247,2.6848.266,4.0231.424,1.1886.1329,2.3773.2742,3.5576.4156q4.9251.5985,9.8334,1.33c1.0141.15,2.02.3076,3.0339.4655.025.0083.0582.0083.0915.0166a362.4194,362.4194,0,0,1,84.0782,23.9974,114.0068,114.0068,0,0,0-79.44,4.846,117.2857,117.2857,0,0,0-37.4632,26.4912,122.7376,122.7376,0,0,0-23.0166,34.13,122.8867,122.8867,0,0,0-23.0082-34.13,117.3757,117.3757,0,0,0-37.4632-26.4912,113.9246,113.9246,0,0,0-80.2712-4.58A361.6094,361.6094,0,0,1,1050.7908,826.75Zm59.3161,221.0221-15.3943,15.91-15.3942-15.91a122.2972,122.2972,0,0,0,15.3942-25.3274A122.3019,122.3019,0,0,0,1110.1069,1047.7722ZM879.401,851.18a36.5291,36.5291,0,0,1,1.1138-8.8193,35.3631,35.3631,0,0,1,4.763-10.6812,87.2214,87.2214,0,0,0,53.8632,26.84,117.4307,117.4307,0,0,0-34.7618,25.2443q-1.309,1.3715-2.56,2.7762A46.094,46.094,0,0,1,886.45,872.1431C884.4133,869.0427,879.4342,861.2707,879.401,851.18Zm108.6408,16.25c48.6432,0,88.9824,37.2388,96.5964,86.0149v.0083a108.3381,108.3381,0,0,1,0,33.4235v.0084c-7.614,48.7927-47.9532,86.0149-96.5964,86.0149-54.0627,0-97.8931-45.9916-97.8931-102.7309S933.9791,867.43,988.0418,867.43Zm12.5016,348.2158c-5.3863,0-9.9248-6.6581-9.9248-14.538,0-7.8717,4.5385-14.53,9.9248-14.53,5.378,0,9.9248,6.6581,9.9248,14.53C1010.4682,1208.9878,1005.9214,1215.6459,1000.5434,1215.6459Zm37.9536,10.05c-5.3863,0-9.933-6.65-9.933-14.53s4.5467-14.538,9.933-14.538c5.3781,0,9.9248,6.6581,9.9248,14.538S1043.8751,1225.6955,1038.497,1225.6955Zm112.4312,0c-5.378,0-9.9248-6.65-9.9248-14.53s4.5468-14.538,9.9248-14.538,9.9248,6.6581,9.9248,14.538S1156.3063,1225.6955,1150.9282,1225.6955Zm47.8785-24.5876c0,7.88-4.5468,14.538-9.9248,14.538-5.3864,0-9.9248-6.6581-9.9248-14.538,0-7.8717,4.5384-14.53,9.9248-14.53C1194.26,1186.5781,1198.8067,1193.2362,1198.8067,1201.1079Zm15.1116-29.6248q-6.4212,3.1545-13.1666,5.7105a20.2848,20.2848,0,0,0-11.87-3.9151c-9.9165,0-18.4033,7.4894-21.72,17.996a21.3631,21.3631,0,0,0-16.2338-7.9465c-12.8091,0-23.2243,12.485-23.2243,27.8376,0,.9809.0415,1.9451.1247,2.9011h-66.2319c.0831-.956.1247-1.92.1247-2.9011,0-15.3526-10.4235-27.8376-23.2244-27.8376a21.3631,21.3631,0,0,0-16.2337,7.9465c-3.3166-10.5066-11.8034-17.996-21.72-17.996a20.2851,20.2851,0,0,0-11.87,3.9151q-6.7454-2.5435-13.1665-5.7188a151.98,151.98,0,0,1-84.951-132.339,120.96,120.96,0,0,0,13.8232,17.439,117.3759,117.3759,0,0,0,37.4633,26.4911,113.9723,113.9723,0,0,0,92.3987,0,116.6587,116.6587,0,0,0,31.495-20.6475l15.095,15.602-.0914.1,2.9342,2.8428,10.8142,11.1717.2244.2327,11.0387-11.4044,2.9342-2.8428-.0914-.1,15.095-15.602a116.7011,116.7011,0,0,0,31.5033,20.6475,113.9527,113.9527,0,0,0,92.39,0,117.2858,117.2858,0,0,0,37.4633-26.4911,121.3532,121.3532,0,0,0,13.8149-17.4224A151.9945,151.9945,0,0,1,1213.9183,1171.4831Zm-12.5265-98.583c-48.6432,0-88.9907-37.2305-96.5964-86.0233a108.3381,108.3381,0,0,1,0-33.4235c7.6057-48.7844,47.9532-86.0232,96.5964-86.0232,54.0627,0,97.8848,46,97.8848,102.7391S1255.4545,1072.9,1201.3918,1072.9Zm108.6242-221.737v.0166c-.0333,10.0827-5.0123,17.8463-7.0488,20.9468a46.0253,46.0253,0,0,1-15.3776,14.3968q-1.2468-1.3965-2.5435-2.76a117.3243,117.3243,0,0,0-34.7618-25.2443,87.2,87.2,0,0,0,53.8632-26.84c.5985.9143,1.1638,1.8453,1.6791,2.8095.05.1.1081.2.158.2993.15.2826.2992.5735.44.8727.108.2162.2161.4406.3242.6651.15.3324.2992.6649.4488,1.0057a33.7383,33.7383,0,0,1,1.2718,3.5c.133.3989.2494.8062.3491,1.2136a.0748.0748,0,0,1,.0083.0415c.0333.0831.05.1746.0748.2577.0748.2743.2078.8229.3575,1.5627.0664.3076.133.6483.1995,1.0141.05.2909.1.5985.15.9309.1.69.1995,1.4547.2743,2.2693.0166.2078.0332.4156.05.6317.0249.399.05.8063.0581,1.23q.0251.5487.025,1.1222Z"/>
          </g>
        </g>
      </g>
      <path class="cls-56" d="M1144.2864,2544.1189c16.0206-24.4988,29.4717-50.6687,43.1263-76.5249,16.0634-30.4185,32.0288-60.9153,49.615-90.4919,10.37-17.4407,21.3815-34.6739,33.3159-51.2115-64.1768-52.81-157.1089-148.4626-188.43-136.5332-.02-1.5473-.0351-3.1047-.0839-4.6474a133.2973,133.2973,0,1,0-181.1919-194.927c-7.7281-100.8724-80.2256-189.1568-184.0894-212.3162A236.053,236.053,0,0,0,489.2613,1850.38a133.3856,133.3856,0,0,0-178.7344,15.2283c-230.6382-198.4932-516.1113,18.9348-488.3647,71.1626,27.8794,52.478-21.8179-60.1644,17.0537-86.6268-67.3408-8.833-128.9556,35.3069-144.09,103.1851l-69.5107,311.8235L1111.587,2596.3962C1122.5362,2579,1133.0418,2561.3147,1144.2864,2544.1189Z"/>
      <path class="cls-57" d="M1319.1036,2284.8428c0-82.7406,3.027-209.9835,4.3906-217.423,10.5892-57.8812,60.49-105.3276,120.4341-105.3276a121.8964,121.8964,0,0,1,71.02,22.6689,74.2583,74.2583,0,0,1,120.5072-86.6446c.518-.1727,1.0452-.3318,1.5632-.5092-.168-2.5674-.2588-5.1582-.2588-7.762,0-67.6661,36.213-115.5633,103.5107-122.52,94.5317-9.7725,135.8261,49.3508,141.0839,112.1677a172.9549,172.9549,0,0,1,57.7494,32.9849,48.6142,48.6142,0,0,1,76.3054-31.8261,217.15,217.15,0,0,1,127.1877-83.5271,74.2556,74.2556,0,0,1,137.22-50.5868,122.5726,122.5726,0,0,1,204.8519,113.0719,216.01,216.01,0,0,1,93.7682-21.2556c119.8659,0,217.0382,97.1747,217.0382,217.0406v109.8269Z"/>
    </g>
  </g>
</svg>
