<svg id="ëÎÓÈ_1" data-name="ëÎÓÈ 1" xmlns="http://www.w3.org/2000/svg" width="208.1991" height="249.8733" viewBox="0 0 208.1991 249.8733">
  <defs>
    <style>
      .cls-1 {
        opacity: 0.3;
      }

      .cls-2 {
        fill: #fdcd02;
      }
    </style>
  </defs>
  <g>
    <g class="cls-1">
      <path d="M179.3807,216.6472A111.6949,111.6949,0,0,1,96.3512,30.2357,111.7082,111.7082,0,1,0,208.1991,212.8863,111.834,111.834,0,0,1,179.3807,216.6472Z"/>
      <path d="M145.69,99.1489v0a42.13,42.13,0,0,0-42.13-42.13h0A42.13,42.13,0,0,0,145.69,14.8878h0a42.13,42.13,0,0,0,42.13,42.1305h0a42.1305,42.1305,0,0,0-42.13,42.13Z"/>
      <path d="M174.0637,175.6421v0A28.3737,28.3737,0,0,0,145.69,147.2683h0a28.3739,28.3739,0,0,0,28.3738-28.3738h0a28.3738,28.3738,0,0,0,28.3738,28.3738h0a28.3737,28.3737,0,0,0-28.3738,28.3736Z"/>
    </g>
    <g>
      <path class="cls-2" d="M165.91,201.76A111.695,111.695,0,0,1,82.8809,15.348,111.7082,111.7082,0,1,0,194.7288,197.9986,111.8378,111.8378,0,0,1,165.91,201.76Z"/>
      <path class="cls-2" d="M132.22,84.2611h0a42.13,42.13,0,0,0-42.13-42.13h0A42.13,42.13,0,0,0,132.22,0V0a42.1306,42.1306,0,0,0,42.13,42.13h0a42.1305,42.1305,0,0,0-42.13,42.1305Z"/>
      <path class="cls-2" d="M160.5933,160.7543h0A28.3737,28.3737,0,0,0,132.22,132.3805h0a28.3736,28.3736,0,0,0,28.3736-28.3737v0a28.3738,28.3738,0,0,0,28.3738,28.3737h0a28.3739,28.3739,0,0,0-28.3738,28.3738Z"/>
    </g>
  </g>
</svg>
