<svg id="ëÎÓÈ_1" data-name="ëÎÓÈ 1" xmlns="http://www.w3.org/2000/svg" width="345.259" height="225.1908" viewBox="0 0 345.259 225.1908">
  <defs>
    <style>
      .cls-1 {
        opacity: 0.3;
      }

      .cls-2 {
        fill: #fdcd02;
      }

      .cls-3 {
        fill: #fff;
      }

      .cls-4 {
        fill: #ebebeb;
      }
    </style>
  </defs>
  <g>
    <path class="cls-1" d="M345.259,135.0942A73.2363,73.2363,0,0,1,271.9311,15.3475a73.32,73.32,0,0,0-53.0138,56.92,74.3727,74.3727,0,0,0-88.8961,21.1191,55.1868,55.1868,0,0,0-74.4669,51.6908,55.6314,55.6314,0,0,0,.3949,6.5056,37.0217,37.0217,0,1,0-5.6657,73.6077H262.07a44.668,44.668,0,0,0,38.9341-66.5761A73.0791,73.0791,0,0,0,345.259,135.0942Z"/>
    <g>
      <path class="cls-2" d="M313.1015,122.2123A73.2277,73.2277,0,0,1,258.6671,0,73.2364,73.2364,0,1,0,331.995,119.7466,73.3216,73.3216,0,0,1,313.1015,122.2123Z"/>
      <path class="cls-3" d="M116.7573,78.0392A55.1865,55.1865,0,0,0,42.29,129.73a55.6777,55.6777,0,0,0,.3948,6.5056A37.0218,37.0218,0,1,0,37.02,209.8434h109.721V55.6889A74.608,74.608,0,0,0,116.7573,78.0392Z"/>
      <path class="cls-4" d="M249.0019,120.4967A74.3477,74.3477,0,0,0,146.7407,55.6889V209.8434h102.065a44.6736,44.6736,0,0,0,.1962-89.3467Z"/>
    </g>
  </g>
</svg>
