<svg id="ëÎÓÈ_1" data-name="ëÎÓÈ 1" xmlns="http://www.w3.org/2000/svg" width="346.8352" height="197.728" viewBox="0 0 346.8352 197.728">
  <defs>
    <style>
      .cls-1 {
        opacity: 0.2;
      }

      .cls-2 {
        fill: #ebebeb;
      }

      .cls-3 {
        fill: #fff;
      }
    </style>
  </defs>
  <g>
    <path class="cls-1" d="M295.89,95.394A85.1488,85.1488,0,0,0,144.422,46.765,63.2078,63.2078,0,0,0,59.1306,105.97a63.7419,63.7419,0,0,0,.4522,7.4512,42.4032,42.4032,0,1,0-6.4891,84.3073H295.6652A51.1672,51.1672,0,0,0,295.89,95.394Z"/>
    <g>
      <path class="cls-2" d="M285.1968,80.5093A85.192,85.192,0,0,0,168.0711,6.2637v176.58H284.9722a51.1672,51.1672,0,0,0,.2246-102.334Z"/>
      <path class="cls-3" d="M133.729,31.88A63.208,63.208,0,0,0,48.4376,91.0848a63.74,63.74,0,0,0,.4522,7.4511,42.4032,42.4032,0,1,0-6.489,84.3074h125.67V6.2637A85.4654,85.4654,0,0,0,133.729,31.88Z"/>
    </g>
  </g>
</svg>
