<svg id="ëÎÓÈ_1" data-name="ëÎÓÈ 1" xmlns="http://www.w3.org/2000/svg" width="303.5588" height="254.1508" viewBox="0 0 303.5588 254.1508">
  <defs>
    <style>
      .cls-1 {
        opacity: 0.2;
      }

      .cls-2 {
        fill: #fff;
      }

      .cls-3 {
        fill: #ebebeb;
      }

      .cls-4 {
        fill: #78d9ff;
      }
    </style>
  </defs>
  <g>
    <g class="cls-1">
      <path d="M259.61,83.9A73.4663,73.4663,0,0,0,128.945,41.95,54.5273,54.5273,0,0,0,55.3674,93.0233a54.9868,54.9868,0,0,0,.39,6.4277A36.58,36.58,0,1,0,50.16,172.18H259.4164A44.14,44.14,0,0,0,259.61,83.9Z"/>
      <path d="M91.0211,187.2145a4.0984,4.0984,0,0,0-5.2394,2.4814L64.7191,248.6715a4.1,4.1,0,1,0,7.7214,2.7576l21.0626-58.9758A4.0989,4.0989,0,0,0,91.0211,187.2145Z"/>
      <path d="M137.5419,187.2145a4.0987,4.0987,0,0,0-5.2394,2.4814L111.24,248.6715a4.1,4.1,0,1,0,7.7214,2.7576l21.0626-58.9758A4.0988,4.0988,0,0,0,137.5419,187.2145Z"/>
      <path d="M184.0627,187.2145a4.0983,4.0983,0,0,0-5.2393,2.4814l-21.0627,58.9756a4.1,4.1,0,1,0,7.7214,2.7576l21.0626-58.9758A4.0988,4.0988,0,0,0,184.0627,187.2145Z"/>
      <path d="M230.5843,187.2145a4.0984,4.0984,0,0,0-5.2394,2.4814l-21.0634,58.9756a4.1,4.1,0,1,0,7.7214,2.7576l21.0634-58.9758A4.099,4.099,0,0,0,230.5843,187.2145Z"/>
    </g>
    <g>
      <path class="cls-2" d="M115.3628,27.5019A54.5273,54.5273,0,0,0,41.7852,78.5752a54.9654,54.9654,0,0,0,.39,6.4278,36.58,36.58,0,1,0-5.598,72.7286h108.411V5.4183A73.7153,73.7153,0,0,0,115.3628,27.5019Z"/>
      <path class="cls-3" d="M246.028,69.4523a73.46,73.46,0,0,0-101.04-64.034V157.7316H245.8342a44.14,44.14,0,0,0,.1938-88.2793Z"/>
      <path class="cls-4" d="M77.4389,172.7663a4.0986,4.0986,0,0,0-5.24,2.4816L51.1369,234.2235a4.1,4.1,0,1,0,7.7214,2.7575l21.0626-58.9758A4.0991,4.0991,0,0,0,77.4389,172.7663Z"/>
      <path class="cls-4" d="M123.96,172.7663a4.0989,4.0989,0,0,0-5.2395,2.4816L97.6577,234.2235a4.1,4.1,0,1,0,7.7214,2.7575l21.0626-58.9758A4.099,4.099,0,0,0,123.96,172.7663Z"/>
      <path class="cls-4" d="M170.4805,172.7663a4.0983,4.0983,0,0,0-5.2393,2.4816l-21.0627,58.9756A4.1,4.1,0,1,0,151.9,236.981l21.0626-58.9758A4.099,4.099,0,0,0,170.4805,172.7663Z"/>
      <path class="cls-4" d="M217.0021,172.7663a4.0985,4.0985,0,0,0-5.2394,2.4816l-21.0634,58.9756a4.1,4.1,0,1,0,7.7214,2.7575l21.0634-58.9758A4.0992,4.0992,0,0,0,217.0021,172.7663Z"/>
    </g>
  </g>
</svg>
