<svg id="ëÎÓÈ_1" data-name="ëÎÓÈ 1" xmlns="http://www.w3.org/2000/svg" width="376.355" height="303.246" viewBox="0 0 376.355 303.246">
  <defs>
    <style>
      .cls-1 {
        opacity: 0.2;
      }

      .cls-2 {
        fill: #78d9ff;
      }

      .cls-3 {
        fill: #fdcd02;
      }

      .cls-4 {
        fill: #ebbf02;
      }

      .cls-5 {
        fill: #fff;
      }

      .cls-6 {
        fill: #ebebeb;
      }
    </style>
  </defs>
  <g>
    <g class="cls-1">
      <path d="M109.5032,263.11l6.24-17.4736a6.9987,6.9987,0,1,0-13.182-4.7079l-6.24,17.4736a6.9987,6.9987,0,1,0,13.1819,4.7079Z"/>
      <path d="M122.9017,272.18a7,7,0,0,0-8.9448,4.2373l-6.2411,17.474a6.9987,6.9987,0,1,0,13.1819,4.7079l6.241-17.4739A6.9986,6.9986,0,0,0,122.9017,272.18Z"/>
      <path d="M164.19,272.18a7,7,0,0,0-8.9449,4.2373l-6.241,17.474a6.999,6.999,0,1,0,13.1826,4.7079l6.2409-17.4739A6.999,6.999,0,0,0,164.19,272.18Z"/>
      <path d="M150.5854,263.11l6.2411-17.4736a6.9988,6.9988,0,1,0-13.1819-4.7086l-6.2411,17.4735a6.9988,6.9988,0,1,0,13.1819,4.7087Z"/>
      <path d="M193.6724,236.6911a7,7,0,0,0-8.9449,4.2371l-6.241,17.4735a6.9988,6.9988,0,1,0,13.1819,4.7087l6.2409-17.4736A6.9988,6.9988,0,0,0,193.6724,236.6911Z"/>
      <path d="M278.6548,59.5076a5.4156,5.4156,0,0,0,5.4157-5.4157V19.1492a5.4157,5.4157,0,1,0-10.8313,0V54.0919A5.4156,5.4156,0,0,0,278.6548,59.5076Z"/>
      <path d="M234.279,74.7164a5.4156,5.4156,0,1,0,7.6586-7.6591L217.2291,42.349a5.4157,5.4157,0,0,0-7.6586,7.6592Z"/>
      <path d="M323.7528,111.4337a45.0979,45.0979,0,0,0-45.0979-45.0979h0A45.1026,45.1026,0,0,0,236.833,94.56a72.6828,72.6828,0,0,0-110.9012,2.953A53.9594,53.9594,0,0,0,53.12,148.0542a54.444,54.444,0,0,0,.386,6.361,36.1988,36.1988,0,1,0-5.54,71.9715H255.0452a43.6733,43.6733,0,0,0,34.0164-71.0756A45.1056,45.1056,0,0,0,323.7528,111.4337Z"/>
      <path d="M323.0314,148.151a5.4158,5.4158,0,0,0-7.6592,7.6591L340.08,180.5183a5.4158,5.4158,0,0,0,7.6591-7.6591Z"/>
      <path d="M370.9393,106.018H335.9966a5.4157,5.4157,0,0,0,0,10.8314h34.9427a5.4157,5.4157,0,1,0,0-10.8314Z"/>
      <path d="M319.2017,76.3025a5.4,5.4,0,0,0,3.83-1.5861L347.74,50.0082A5.4158,5.4158,0,0,0,340.08,42.349L315.3722,67.0573a5.4157,5.4157,0,0,0,3.8295,9.2452Z"/>
    </g>
    <g>
      <g>
        <path class="cls-2" d="M91.1423,254.0236a7.0043,7.0043,0,0,1-6.5911-9.3551l6.24-17.4737a6.9987,6.9987,0,1,1,13.1819,4.7081l-6.24,17.4735A7.0019,7.0019,0,0,1,91.1423,254.0236Z"/>
        <path class="cls-2" d="M102.5368,289.5124a7.0039,7.0039,0,0,1-6.5909-9.355l6.2409-17.4739a6.9987,6.9987,0,1,1,13.1819,4.7079l-6.2409,17.4739A7.0014,7.0014,0,0,1,102.5368,289.5124Z"/>
        <path class="cls-2" d="M143.8262,289.5124a7.0046,7.0046,0,0,1-6.5917-9.355l6.241-17.4739a6.999,6.999,0,0,1,13.1826,4.7079l-6.241,17.4739A7.0017,7.0017,0,0,1,143.8262,289.5124Z"/>
        <path class="cls-2" d="M132.2245,254.0236a7.0043,7.0043,0,0,1-6.591-9.3554l6.241-17.4736a6.9988,6.9988,0,1,1,13.1819,4.7085l-6.2409,17.4737A7.0016,7.0016,0,0,1,132.2245,254.0236Z"/>
        <path class="cls-2" d="M173.3075,254.0236a7.0043,7.0043,0,0,1-6.591-9.3554l6.2409-17.4736a6.9988,6.9988,0,1,1,13.182,4.7085l-6.241,17.4737A7.0015,7.0015,0,0,1,173.3075,254.0236Z"/>
      </g>
      <g>
        <path class="cls-3" d="M221.7871,97.7a45.0978,45.0978,0,0,0,45.0977,45.0979V52.6023A45.0977,45.0977,0,0,0,221.7871,97.7Z"/>
        <path class="cls-3" d="M261.4693,5.4156V40.3582a5.4155,5.4155,0,0,0,5.4155,5.4157V0A5.4155,5.4155,0,0,0,261.4693,5.4156Z"/>
        <path class="cls-3" d="M261.4693,155.0419v34.9426a5.4155,5.4155,0,0,0,5.4155,5.4157V149.6263A5.4155,5.4155,0,0,0,261.4693,155.0419Z"/>
        <path class="cls-3" d="M222.509,60.9827a5.4157,5.4157,0,0,0,7.6587-7.6591L205.4591,28.6154a5.4157,5.4157,0,0,0-7.6586,7.6593Z"/>
        <path class="cls-3" d="M214.9587,97.7a5.4154,5.4154,0,0,0-5.4156-5.4155H174.6005a5.4156,5.4156,0,1,0,0,10.8312h34.9426A5.4155,5.4155,0,0,0,214.9587,97.7Z"/>
        <path class="cls-3" d="M222.509,134.4174l-24.7085,24.7082a5.4156,5.4156,0,1,0,7.6586,7.6591l24.7086-24.7082a5.4157,5.4157,0,0,0-7.6587-7.6591Z"/>
        <g>
          <path class="cls-4" d="M311.9829,97.7A45.0978,45.0978,0,0,0,266.885,52.6023h0v90.1956h0A45.0979,45.0979,0,0,0,311.9829,97.7Z"/>
          <path class="cls-4" d="M272.3005,40.3582V5.4156A5.4154,5.4154,0,0,0,266.8848,0V45.7739A5.4155,5.4155,0,0,0,272.3005,40.3582Z"/>
          <path class="cls-4" d="M272.3005,189.9845V155.0419a5.4154,5.4154,0,0,0-5.4157-5.4156V195.4A5.4155,5.4155,0,0,0,272.3005,189.9845Z"/>
          <path class="cls-4" d="M311.2614,134.4174a5.4158,5.4158,0,0,0-7.6591,7.6591L328.31,166.7847a5.4158,5.4158,0,1,0,7.6591-7.6591Z"/>
          <path class="cls-4" d="M359.1693,92.2845H324.2267a5.4156,5.4156,0,1,0,0,10.8312h34.9426a5.4156,5.4156,0,1,0,0-10.8312Z"/>
          <path class="cls-4" d="M307.4318,62.5689a5.3989,5.3989,0,0,0,3.83-1.5862L335.97,36.2747a5.4159,5.4159,0,0,0-7.6591-7.6593L303.6023,53.3236a5.4158,5.4158,0,0,0,3.8295,9.2453Z"/>
        </g>
      </g>
      <path class="cls-5" d="M114.1619,83.7789A53.9594,53.9594,0,0,0,41.35,134.3207a54.4191,54.4191,0,0,0,.386,6.3609,36.1988,36.1988,0,1,0-5.54,71.9716H143.479V61.9251A72.9508,72.9508,0,0,0,114.1619,83.7789Z"/>
      <path class="cls-6" d="M243.467,125.2926a72.6956,72.6956,0,0,0-99.988-63.3675V212.6532h99.7962a43.6805,43.6805,0,0,0,.1918-87.3606Z"/>
    </g>
  </g>
</svg>
