<svg id="ëÎÓÈ_1" data-name="ëÎÓÈ 1" xmlns="http://www.w3.org/2000/svg" width="326.9901" height="255.7553" viewBox="0 0 326.9901 255.7553">
  <defs>
    <style>
      .cls-1 {
        opacity: 0.2;
      }

      .cls-2 {
        fill: none;
      }

      .cls-3 {
        fill: #ebebeb;
      }

      .cls-4 {
        fill: #fff;
      }

      .cls-5 {
        fill: #ebbf02;
      }

      .cls-6 {
        fill: #fdcd02;
      }
    </style>
  </defs>
  <g>
    <path class="cls-1" d="M278.9349,90.9245A80.3127,80.3127,0,0,0,136.06,45.0543,59.6225,59.6225,0,0,0,55.6074,100.9a60.147,60.147,0,0,0,.4268,7.0285,39.9975,39.9975,0,1,0-6.121,79.5243h88.064c-1.12,2.9825-2.1963,5.9867-3.19,9.032-1.2549,3.8683-2.4059,7.7884-3.4081,11.7826a105.2037,105.2037,0,0,0-2.4091,12.28,105.2041,105.2041,0,0,0,8.3453-9.3249c2.5827-3.2076,5.0162-6.4891,7.3462-9.8225,3.1707-4.5537,6.132-9.2119,8.9384-13.947h17.92v13.3245l19.35.6966q4.1259.1487,8.2525.2082,3.3872.0483,6.7745.047-3.2624,8.4432-6.1,17.0979c-1.9255,5.9368-3.6921,11.9528-5.23,18.0824a161.4851,161.4851,0,0,0-3.6971,18.8457,161.4907,161.4907,0,0,0,12.8073-14.3109c3.9635-4.9224,7.6981-9.9585,11.2739-15.074A358.7,358.7,0,0,0,234.54,194.75l4.03-7.2965h40.1535a48.2645,48.2645,0,0,0,.2118-96.5285Z"/>
    <g>
      <polygon class="cls-2" points="161.601 172.47 161.601 185.795 168.454 172.47 161.601 172.47"/>
      <path class="cls-3" d="M269.017,75.9419A80.3822,80.3822,0,0,0,161.6014,4.7261V172.47h6.8526l1.607-3.1249a366.6622,366.6622,0,0,1,19.5335-33.7235c3.5829-5.4668,7.3483-10.8477,11.3576-16.1145a167.0905,167.0905,0,0,1,13.0085-15.3393,167.2211,167.2211,0,0,1-3.496,19.8062c-1.4923,6.4487-3.2282,12.7828-5.1466,19.0313q-2.9736,9.7221-6.5206,19.1758,3.4561.02,6.911.0963c2.7506.0693,5.5012.1434,8.2518.2726l19.66.9235-4.9684,8.9965h40.1534a48.2645,48.2645,0,0,0,.2119-96.5285Z"/>
      <path class="cls-4" d="M126.1423,30.0717A59.6223,59.6223,0,0,0,45.69,85.9175a60.1266,60.1266,0,0,0,.4267,7.0285A39.9976,39.9976,0,1,0,39.9953,172.47h88.0639c.2636-.702.5143-1.4105.7844-2.1094q-2.2071.0012-4.4144-.0306-2.6885-.04-5.3773-.1356l-12.6088-.4539,5.5123-10.7185a238.9563,238.9563,0,0,1,12.7281-21.9745c2.3346-3.5621,4.7882-7.0686,7.4007-10.5a108.9147,108.9147,0,0,1,8.4763-9.9952,108.9484,108.9484,0,0,1-2.2779,12.906c-.9725,4.2019-2.1036,8.3293-3.3536,12.4009q-1.9375,6.335-4.2487,12.495,2.2518.0128,4.5032.0627c1.7923.0451,3.5846.0934,5.3768.1776l12.81.6019-5.8632,10.6163c-1.2363,2.2387-2.52,4.454-3.8257,6.6576h17.92V4.7261A80.5542,80.5542,0,0,0,126.1423,30.0717Z"/>
      <path class="cls-5" d="M213.96,162.55c-2.7506-.1292-5.5012-.2033-8.2518-.2726q-3.4553-.08-6.911-.0963,3.5268-9.4629,6.5206-19.1758c1.9184-6.2485,3.6543-12.5826,5.1466-19.0313a167.2211,167.2211,0,0,0,3.496-19.8062,167.0905,167.0905,0,0,0-13.0085,15.3393c-4.0093,5.2668-7.7747,10.6477-11.3576,16.1145a366.6622,366.6622,0,0,0-19.5335,33.7235l-1.607,3.1249-6.8526,13.3244,19.35.6967q4.1259.1487,8.2524.2081,3.3873.0483,6.7746.0471-3.2623,8.4429-6.1,17.0978c-1.9254,5.9368-3.6922,11.9528-5.23,18.0825a161.496,161.496,0,0,0-3.6971,18.8456,161.4733,161.4733,0,0,0,12.8073-14.3109c3.9636-4.9223,7.6983-9.9586,11.2739-15.0741a358.6376,358.6376,0,0,0,19.589-31.6209l4.03-7.2963,4.9684-8.9965Z"/>
      <path class="cls-6" d="M124.869,181.5023c-1.2547,3.8683-2.4059,7.7884-3.408,11.7825a105.2119,105.2119,0,0,0-2.4091,12.28,105.1917,105.1917,0,0,0,8.3453-9.3249c2.5827-3.2074,5.0162-6.489,7.3462-9.8224,3.1707-4.5536,6.1319-9.2119,8.9385-13.9469H128.0592C126.94,175.4529,125.8629,178.4569,124.869,181.5023Z"/>
      <path class="cls-6" d="M153.3708,155.1965l-12.81-.6019c-1.7922-.0842-3.5845-.1325-5.3768-.1776q-2.2517-.0519-4.5032-.0627,2.298-6.1661,4.2487-12.495c1.25-4.0716,2.3811-8.199,3.3536-12.4009a108.9484,108.9484,0,0,0,2.2779-12.906,108.9147,108.9147,0,0,0-8.4763,9.9952c-2.6125,3.4317-5.0661,6.9382-7.4007,10.5a238.9563,238.9563,0,0,0-12.7281,21.9745l-5.5123,10.7185,12.6088.4539q2.6886.0969,5.3773.1356,2.2074.0315,4.4144.0306c-.27.6989-.5208,1.4074-.7844,2.1094h15.6227c1.306-2.2036,2.5894-4.4189,3.8257-6.6576Z"/>
    </g>
  </g>
</svg>
