<svg id="ëÎÓÈ_1" data-name="ëÎÓÈ 1" xmlns="http://www.w3.org/2000/svg" width="268.0496" height="272.0694" viewBox="0 0 268.0496 272.0694">
  <defs>
    <style>
      .cls-1 {
        fill: none;
      }

      .cls-2 {
        opacity: 0.2;
      }

      .cls-3 {
        fill: #ebebeb;
      }

      .cls-4 {
        fill: #fff;
      }
    </style>
  </defs>
  <g>
    <polygon class="cls-1" points="104.616 118.103 104.616 143.432 126.55 156.096 126.551 156.096 126.551 105.44 126.55 105.439 104.616 118.103"/>
    <polygon class="cls-1" points="148.485 143.432 148.485 118.103 126.551 105.44 126.551 156.096 148.485 143.432"/>
    <path class="cls-2" d="M258.6,171.3184l-38.451,5.9257L179.83,153.9659V128.6378l40.319-23.2782,38.451,5.9253a8.1986,8.1986,0,1,0,2.498-16.2058L242.8312,92.264l8.914-5.1465a8.1986,8.1986,0,0,0-8.1986-14.2l-8.9148,5.147,6.6954-17.2276a8.1982,8.1982,0,1,0-15.2827-5.94L211.9506,91.1593l-40.3186,23.278-21.9357-12.6644V55.2185L174.0543,24.88a8.1987,8.1987,0,1,0-12.7862-10.2659L149.6963,29.0273V18.7327a8.1987,8.1987,0,0,0-8.1979-8.1986l-.0007,0a8.1987,8.1987,0,0,0-8.1986,8.1987V29.0258L121.7282,14.6144A8.1988,8.1988,0,0,0,108.9418,24.88l24.3573,30.3365v46.5561l-21.9346,12.6643L71.0455,91.1591,56.9518,54.897a8.1983,8.1983,0,1,0-15.2828,5.94l6.695,17.2268L39.45,72.9172a8.1986,8.1986,0,1,0-8.1987,14.2l8.9145,5.1467L21.8986,95.08a8.1986,8.1986,0,1,0,2.498,16.2059L62.8474,105.36l40.3184,23.2778v25.3285L62.8481,177.2435l-38.4515-5.9251a8.1986,8.1986,0,1,0-2.498,16.2058l18.2675,2.8149-8.9152,5.1471a8.1986,8.1986,0,1,0,8.1987,14.2L48.364,204.54l-6.695,17.227a8.1983,8.1983,0,1,0,15.2828,5.94l14.0933-36.262,40.3194-23.2786,21.9346,12.6644v46.5562l-24.3566,30.3367a8.1988,8.1988,0,1,0,12.7864,10.2658l11.57-14.4111v10.2927a8.1987,8.1987,0,0,0,8.1986,8.1986h.0007a8.1989,8.1989,0,0,0,8.1979-8.1986V253.5772l11.5718,14.412a8.1987,8.1987,0,0,0,12.7862-10.2658l-24.358-30.337V180.8305l21.9354-12.6644,40.3189,23.2782,14.0947,36.2628a8.1984,8.1984,0,1,0,15.2827-5.9407L234.6326,204.54l8.914,5.1466a8.1986,8.1986,0,0,0,8.1986-14.2l-8.9145-5.1467,18.2676-2.8153a8.1986,8.1986,0,1,0-2.498-16.2058Zm-95.1674-17.3525L141.4984,166.63l-.0007,0-21.9346-12.6642V128.6374l21.9346-12.6642.0007,0,21.9345,12.6637Z"/>
    <g>
      <path class="cls-3" d="M243.6528,160.7845,205.2017,166.71l-40.319-23.2782V118.1039l40.319-23.2782,38.4511,5.9255a8.1987,8.1987,0,1,0,2.4979-16.206L227.8837,81.73l8.914-5.1465a8.1986,8.1986,0,0,0-8.1986-14.2l-8.9149,5.147L226.38,50.3027a8.1982,8.1982,0,1,0-15.2827-5.94L197.003,80.6254l-40.3186,23.2781L134.7487,91.239V44.6848l24.358-30.3383A8.1987,8.1987,0,1,0,146.3205,4.0806L134.7487,18.4935V8.1988A8.1987,8.1987,0,0,0,126.5508,0V105.44l21.9346,12.6637V143.432l-21.9346,12.6639v105.44a8.1988,8.1988,0,0,0,8.1979-8.1986V243.0433l11.5718,14.412A8.1987,8.1987,0,0,0,159.1067,247.19l-24.358-30.337V170.2966l21.9354-12.6643,40.3189,23.2783,14.0947,36.2626a8.1984,8.1984,0,1,0,15.2827-5.9407l-6.6954-17.2264,8.9141,5.1466a8.1986,8.1986,0,0,0,8.1986-14.2l-8.9144-5.1468,18.2674-2.8152a8.1986,8.1986,0,1,0-2.4979-16.2059Z"/>
      <path class="cls-4" d="M126.55,156.0963,104.6156,143.432V118.1035L126.55,105.4393l.0007.0005V0L126.55,0a8.1988,8.1988,0,0,0-8.1986,8.1988V18.4919L106.7806,4.0806A8.1988,8.1988,0,0,0,93.9942,14.3465l24.3573,30.3364V91.239L96.417,103.9033,56.0979,80.6252,42.0042,44.3631a8.1983,8.1983,0,1,0-15.2828,5.94L33.4164,67.53,24.502,62.3833a8.1986,8.1986,0,0,0-8.1987,14.2L25.2178,81.73,6.951,84.5456a8.1987,8.1987,0,1,0,2.4981,16.2059L47.9,94.8257l40.3186,23.2778V143.432L47.9005,166.71,9.4491,160.7845A8.1987,8.1987,0,1,0,6.951,176.99l18.2675,2.8148-8.9152,5.1472a8.1986,8.1986,0,1,0,8.1987,14.2l8.9144-5.1469-6.695,17.227a8.1983,8.1983,0,1,0,15.2828,5.94l14.0934-36.2621L96.417,157.6323l21.9345,12.6643v46.5562L93.9949,247.19a8.1988,8.1988,0,0,0,12.7865,10.2658l11.57-14.4111v10.2927a8.1988,8.1988,0,0,0,8.1986,8.1987l.0007,0v-105.44Z"/>
    </g>
  </g>
</svg>
